<?xml version="1.0" encoding="utf-8"?>
<!-- Generator: Adobe Illustrator 23.0.2, SVG Export Plug-In . SVG Version: 6.00 Build 0)  -->
<svg version="1.1" id="Layer_1" xmlns="http://www.w3.org/2000/svg" xmlns:xlink="http://www.w3.org/1999/xlink" x="0px" y="0px"
	 viewBox="0 0 22.26 20" style="enable-background:new 0 0 22.26 20;" xml:space="preserve">
<style type="text/css">
	.st0{fill:#C4C4C4;}
</style>
<g>
	<polygon class="st0" points="0,0.88 0,11.57 5.93,6.22 	"/>
	<polygon class="st0" points="16.24,0 0.97,0 8.61,6.87 	"/>
	<path class="st0" d="M7.9,8L6.91,7.11l-5.94,5.34h5.62C6.59,10.81,7.08,9.28,7.9,8z"/>
	<path class="st0" d="M14.84,4.2c0.82,0,1.62,0.12,2.37,0.35V0.88l-3.83,3.45C13.86,4.25,14.34,4.2,14.84,4.2z"/>
</g>
<path class="st0" d="M15.01,5.5c-4,0-7.25,3.25-7.25,7.25S11.01,20,15.01,20s7.25-3.25,7.25-7.25S19.01,5.5,15.01,5.5z M13.63,16.34
	l-3.31-3.31l1.1-1.11l2.21,2.21l4.97-4.97l1.11,1.1L13.63,16.34z"/>
</svg>
