<?xml version="1.0"?>
<svg xmlns="http://www.w3.org/2000/svg" height="512px" viewBox="0 0 448 448" width="512px"><g><path d="m448 24c0-13.253906-10.746094-24-24-24h-336c-13.253906 0-24 10.746094-24 24v24h296c22.082031.027344 39.972656 17.917969 40 40v296h24c13.253906 0 24-10.746094 24-24zm0 0" data-original="#000000" class="active-path" data-old_color="#000000" fill="#AFB8C4"/><path d="m384 88c0-13.253906-10.746094-24-24-24h-336c-13.253906 0-24 10.746094-24 24v336c0 13.253906 10.746094 24 24 24h336c13.253906 0 24-10.746094 24-24zm-104 176h-80v80c0 4.417969-3.582031 8-8 8s-8-3.582031-8-8v-80h-80c-4.417969 0-8-3.582031-8-8s3.582031-8 8-8h80v-80c0-4.417969 3.582031-8 8-8s8 3.582031 8 8v80h80c4.417969 0 8 3.582031 8 8s-3.582031 8-8 8zm0 0" data-original="#000000" class="active-path" data-old_color="#000000" fill="#AFB8C4"/></g> </svg>
