<?xml version="1.0" encoding="UTF-8" standalone="no"?>
<svg
   xmlns:dc="http://purl.org/dc/elements/1.1/"
   xmlns:cc="http://creativecommons.org/ns#"
   xmlns:rdf="http://www.w3.org/1999/02/22-rdf-syntax-ns#"
   xmlns:svg="http://www.w3.org/2000/svg"
   xmlns="http://www.w3.org/2000/svg"
   xmlns:sodipodi="http://sodipodi.sourceforge.net/DTD/sodipodi-0.dtd"
   xmlns:inkscape="http://www.inkscape.org/namespaces/inkscape"
   inkscape:version="1.0 (4035a4fb49, 2020-05-01)"
   sodipodi:docname="administration.svg"
   id="svg4"
   version="1.1"
   fill="none"
   viewBox="0 0 23 22"
   height="22"
   width="23">
  <metadata
     id="metadata10">
    <rdf:RDF>
      <cc:Work
         rdf:about="">
        <dc:format>image/svg+xml</dc:format>
        <dc:type
           rdf:resource="http://purl.org/dc/dcmitype/StillImage" />
      </cc:Work>
    </rdf:RDF>
  </metadata>
  <defs
     id="defs8" />
  <sodipodi:namedview
     inkscape:current-layer="svg4"
     inkscape:window-maximized="1"
     inkscape:window-y="-9"
     inkscape:window-x="-9"
     inkscape:cy="10.946988"
     inkscape:cx="11.5"
     inkscape:zoom="37.727273"
     showgrid="false"
     id="namedview6"
     inkscape:window-height="1001"
     inkscape:window-width="1920"
     inkscape:pageshadow="2"
     inkscape:pageopacity="0"
     guidetolerance="10"
     gridtolerance="10"
     objecttolerance="10"
     borderopacity="1"
     bordercolor="#666666"
     pagecolor="#ffffff" />
  <path
     id="path2"
     fill="#ECEFEF"
     d="M22.6999 17.9998L13.5999 8.89977C14.4999 6.59977 13.9999 3.89977 12.0999 1.99977C10.0999 -0.0002321 7.09994 -0.400232 4.69994 0.699768L8.99994 4.99977L5.99994 7.99977L1.59994 3.69977C0.399939 6.09977 0.899939 9.09977 2.89994 11.0998C4.79994 12.9998 7.49994 13.4998 9.79994 12.5998L18.8999 21.6998C19.2999 22.0998 19.8999 22.0998 20.2999 21.6998L22.5999 19.3998C23.0999 18.9998 23.0999 18.2998 22.6999 17.9998Z" />
  <path
     id="path12"
     d="m 19.448378,21.972619 c -0.310768,-0.05147 -0.06763,0.179615 -5.008568,-4.76018 l -4.6276598,-4.626588 -0.232417,0.08203 C 9.3248452,12.757849 8.9304763,12.86236 8.6309803,12.919314 7.8098981,13.075455 6.7409751,13.03582 5.9072289,12.818318 3.9047653,12.295931 2.2128684,10.801594 1.4462517,8.8782442 1.11238,8.0405995 0.97710843,7.3385331 0.97710843,6.4433661 c 0,-0.7075937 0.10524297,-1.3566425 0.32182877,-1.9847647 0.1230679,-0.3569103 0.2866741,-0.7262659 0.31692,-0.7154753 0.011526,0.00411 1.0015708,0.9657385 2.2001,2.1369478 L 5.9951009,8.009545 7.5017804,6.5030391 9.0084602,4.9965334 6.8607829,2.8487347 4.7131055,0.70093588 5.0252274,0.57735962 c 0.8186142,-0.32410811 1.525822,-0.45539582 2.4458569,-0.4540546 0.6156107,8.9744e-4 0.926745,0.0337453 1.4719872,0.15540448 2.6814245,0.59830279 4.7179735,2.8708778 5.0384205,5.6223484 0.0317,0.2721911 0.0391,0.4983445 0.02852,0.8712313 -0.01997,0.7036906 -0.111398,1.2234674 -0.327745,1.8632364 l -0.09415,0.2784214 4.634856,4.633522 c 3.443582,3.442589 4.64843,4.66275 4.687663,4.747243 0.04006,0.08627 0.05256,0.168113 0.05177,0.339023 -0.0018,0.401451 0.02798,0.363079 -1.387087,1.784349 -0.67956,0.682537 -1.30398,1.292818 -1.387601,1.35618 -0.223662,0.169477 -0.487046,0.240139 -0.739343,0.198355 z"
     style="opacity:0.5;fill:#ffffff;stroke-width:0.026506" />
  <path
     id="path14"
     d="m 19.425301,21.968295 c 0,-0.01386 -0.02087,-0.021 -0.04639,-0.01586 -0.02551,0.0051 -0.05831,7.9e-5 -0.07289,-0.01122 -0.01458,-0.0113 -0.104036,-0.07707 -0.198795,-0.146158 -0.202386,-0.14755 -1.328018,-1.257894 -5.9052,-5.824996 -1.855631,-1.851545 -3.3883417,-3.367218 -3.4060239,-3.368164 -0.017682,-9.46e-4 -0.044077,0.0047 -0.058656,0.01249 -0.014578,0.0078 -0.050361,0.01788 -0.079518,0.02237 -0.029157,0.0045 -0.056764,0.01907 -0.061351,0.03241 -0.00459,0.01334 -0.02546,0.01768 -0.046385,0.0097 -0.020926,-0.008 -0.038047,-0.0018 -0.038047,0.01391 0,0.01568 -0.017892,0.02164 -0.039759,0.01325 -0.021868,-0.0084 -0.039759,-0.0024 -0.039759,0.01325 0,0.01568 -0.016685,0.02211 -0.037078,0.01428 -0.020393,-0.0078 -0.04463,-0.002 -0.053861,0.01293 -0.00923,0.01494 -0.034293,0.02044 -0.055693,0.01222 -0.0214,-0.0082 -0.03891,-0.0028 -0.03891,0.01193 0,0.01477 -0.023855,0.02062 -0.053012,0.013 -0.029157,-0.0076 -0.053012,-9.17e-4 -0.053012,0.0149 0,0.01582 -0.017892,0.0219 -0.039759,0.01351 -0.021867,-0.0084 -0.039759,-0.0012 -0.039759,0.01587 0,0.01907 -0.020542,0.02461 -0.053012,0.0143 -0.030807,-0.0098 -0.053012,-0.0048 -0.053012,0.01197 0,0.01748 -0.026039,0.02226 -0.066265,0.01217 -0.03996,-0.01003 -0.066265,-0.0053 -0.066265,0.01192 0,0.0157 -0.01732,0.0219 -0.03849,0.01378 -0.02117,-0.0081 -0.053971,-0.0051 -0.072892,0.0066 -0.018921,0.01178 -0.061239,0.01794 -0.09404,0.0137 -0.032801,-0.0042 -0.059639,0.0048 -0.059639,0.02004 0,0.01643 -0.031121,0.02152 -0.076303,0.01248 -0.043497,-0.0087 -0.084082,-0.0027 -0.094396,0.01401 -0.010107,0.01635 -0.046595,0.02212 -0.082673,0.01306 -0.03552,-0.0089 -0.085481,-0.0072 -0.111026,0.0037 -0.025545,0.01097 -0.1359028,0.01772 -0.2452401,0.015 -0.1487948,-0.0037 -0.188795,0.0023 -0.1590362,0.02384 0.029656,0.02147 0.00271,0.02508 -0.1060241,0.01421 -0.2524876,-0.02524 -1.0156605,-0.07845 -1.1309958,-0.07886 -0.060783,-2.12e-4 -0.1038173,-0.01123 -0.095632,-0.02447 0.00827,-0.01338 -0.022131,-0.01865 -0.068402,-0.01186 -0.045806,0.0067 -0.083283,9.7e-4 -0.083283,-0.01278 0,-0.01375 -0.029819,-0.0193 -0.066265,-0.01234 -0.036446,0.007 -0.066265,10e-4 -0.066265,-0.01325 0,-0.01426 -0.029819,-0.02022 -0.066265,-0.01325 -0.036446,0.007 -0.066265,0.001 -0.066265,-0.01325 0,-0.01426 -0.023855,-0.01968 -0.053012,-0.01206 -0.029157,0.0076 -0.053012,0.0017 -0.053012,-0.01325 0,-0.01491 -0.023283,-0.02103 -0.051741,-0.01359 -0.028458,0.0074 -0.055958,8.8e-4 -0.061111,-0.01458 -0.00515,-0.01546 -0.047472,-0.02811 -0.094042,-0.02811 -0.04657,0 -0.084672,-0.01122 -0.084672,-0.02492 0,-0.01371 -0.017892,-0.01806 -0.039759,-0.0097 -0.021867,0.0084 -0.039759,0.0024 -0.039759,-0.01325 0,-0.01568 -0.017892,-0.02165 -0.039759,-0.01325 -0.021867,0.0084 -0.039759,0.0024 -0.039759,-0.01325 0,-0.01568 -0.017892,-0.02164 -0.039759,-0.01325 -0.021867,0.0084 -0.039759,0.0027 -0.039759,-0.01263 0,-0.01534 -0.014803,-0.02295 -0.032896,-0.01692 -0.018093,0.006 -0.04945,-0.0056 -0.069683,-0.02582 -0.020233,-0.02023 -0.053141,-0.03051 -0.073128,-0.02284 -0.019988,0.0077 -0.036341,0.0033 -0.036341,-0.0097 0,-0.02244 -0.1690507,-0.09264 -0.2253012,-0.09356 -0.014578,-2.39e-4 -0.03247,-0.0079 -0.039759,-0.01699 -0.00729,-0.0091 -0.1265662,-0.07334 -0.2650602,-0.142731 C 4.3595552,12.18697 3.9981511,11.969481 3.7536132,11.791912 3.6552092,11.720462 3.5746975,11.665949 3.5746975,11.670783 c 0,0.0048 -0.061814,-0.04573 -0.1373651,-0.112356 C 2.9865528,11.160947 2.6426425,10.81163 2.411237,10.516265 2.334142,10.417865 2.2595217,10.337349 2.2454138,10.337349 c -0.014108,0 -0.019029,-0.01071 -0.010935,-0.02381 0.00809,-0.0131 -0.019843,-0.06081 -0.062082,-0.106024 -0.042239,-0.04522 -0.069031,-0.08259 -0.059537,-0.08306 0.00949,-4.64e-4 -6.306e-4,-0.01542 -0.022498,-0.03323 -0.021867,-0.01781 -0.043026,-0.04811 -0.047018,-0.06732 C 2.0319518,9.96908 1.9543888,9.860236 1.9267131,9.860236 c -0.013762,0 -0.017919,-0.011493 -0.00924,-0.025539 0.00868,-0.014046 -0.00851,-0.04983 -0.038195,-0.079518 C 1.8495901,9.725491 1.8315691,9.7012 1.8392331,9.7012 c 0.00766,0 -0.00457,-0.035783 -0.027187,-0.079518 -0.022616,-0.043735 -0.053446,-0.079518 -0.06851,-0.079518 -0.015064,0 -0.020018,-0.011928 -0.011008,-0.026506 0.00901,-0.014578 0.00305,-0.026506 -0.013253,-0.026506 -0.016299,0 -0.022263,-0.011928 -0.013253,-0.026506 0.00901,-0.014578 0.00305,-0.026506 -0.013253,-0.026506 -0.016299,0 -0.022263,-0.011928 -0.013253,-0.026506 0.00901,-0.014578 0.00305,-0.026506 -0.013253,-0.026506 -0.016299,0 -0.022263,-0.011928 -0.013253,-0.026506 0.00901,-0.014578 0.00305,-0.026506 -0.013253,-0.026506 -0.016299,0 -0.022263,-0.011928 -0.013253,-0.026506 0.00901,-0.014578 0.00305,-0.026506 -0.013253,-0.026506 -0.016299,0 -0.022263,-0.011928 -0.013253,-0.026506 0.00901,-0.014578 0.00305,-0.026506 -0.013253,-0.026506 -0.016299,0 -0.022769,-0.011108 -0.014378,-0.024686 0.017789,-0.028784 -0.065051,-0.2138686 -0.095723,-0.2138686 -0.011421,0 -0.014489,-0.016354 -0.00682,-0.036341 0.00767,-0.019988 -0.00406,-0.054351 -0.026076,-0.076363 -0.022012,-0.022012 -0.034572,-0.045471 -0.027911,-0.052131 0.016222,-0.016222 -0.041643,-0.1797379 -0.063613,-0.1797618 -0.00951,-10e-6 -0.01917,-0.032445 -0.021471,-0.072077 -0.0023,-0.039633 -0.016541,-0.076178 -0.031643,-0.081212 -0.015103,-0.00503 -0.020889,-0.026274 -0.012859,-0.0472 0.00803,-0.020925 0.00177,-0.038047 -0.01391,-0.038047 -0.01568,0 -0.021644,-0.017892 -0.013253,-0.039759 0.00839,-0.021868 0.00504,-0.039786 -0.00746,-0.03982 -0.012493,-2.65e-5 -0.02411,-0.038269 -0.025813,-0.084969 -0.0017,-0.046699 -0.015347,-0.088991 -0.030319,-0.093982 -0.014971,-0.00499 -0.021132,-0.032357 -0.01369,-0.060815 0.00744,-0.028458 0.00133,-0.051741 -0.013585,-0.051741 -0.014914,0 -0.020878,-0.023855 -0.013253,-0.053012 0.00762,-0.029157 0.00166,-0.053012 -0.013253,-0.053012 -0.014914,0 -0.02123,-0.022509 -0.014035,-0.050021 0.00719,-0.027511 0.00123,-0.057343 -0.013246,-0.066292 -0.01448,-0.00895 -0.020444,-0.038768 -0.013253,-0.066265 0.00719,-0.027497 6.279e-4,-0.057686 -0.014584,-0.067087 -0.015212,-0.0094 -0.02088,-0.034755 -0.012597,-0.056341 0.00828,-0.021586 0.00159,-0.055476 -0.014868,-0.07531 -0.016461,-0.019834 -0.022483,-0.055465 -0.013383,-0.07918 0.0091,-0.023715 0.00771,-0.063992 -0.00309,-0.089504 -0.010798,-0.025512 -0.017126,-0.091114 -0.014062,-0.1457831 0.00306,-0.054669 -0.00429,-0.099515 -0.016336,-0.099659 C 1.0002193,7.1297261 0.9878544,6.9597448 0.98479023,6.7521478 0.98172606,6.544551 0.97350253,6.3031325 0.96651571,6.2156627 c -0.007323,-0.091683 -0.004241,-0.1309724 0.007278,-0.092771 0.0134534,0.044617 0.0258892,-0.027697 0.0380654,-0.2213492 0.00995,-0.1581879 0.011456,-0.2983385 0.00336,-0.3114458 -0.0081,-0.013108 -5.364e-4,-0.023832 0.01681,-0.023832 0.021279,0 0.02661,-0.030372 0.016387,-0.093365 -0.010236,-0.063079 -0.00591,-0.087652 0.013346,-0.075753 0.018875,0.011665 0.02437,-0.010509 0.016274,-0.065671 -0.00672,-0.045806 -9.71e-4,-0.083283 0.012782,-0.083283 0.013753,0 0.019305,-0.029819 0.012338,-0.066265 -0.00697,-0.036446 -0.001,-0.066265 0.013254,-0.066265 0.014257,0 0.019683,-0.023855 0.012059,-0.053012 -0.00762,-0.029157 -0.00166,-0.053012 0.013253,-0.053012 0.014914,0 0.020878,-0.023855 0.013253,-0.053012 -0.00762,-0.029157 -0.00166,-0.053012 0.013253,-0.053012 0.014914,0 0.021027,-0.023283 0.013585,-0.051741 -0.00744,-0.028458 -0.00262,-0.055379 0.010723,-0.059826 0.01334,-0.00445 0.026983,-0.046742 0.030319,-0.093989 0.00334,-0.047248 0.016287,-0.085928 0.02878,-0.085957 0.012494,-2.65e-5 0.01585,-0.017944 0.00746,-0.039812 -0.00839,-0.021867 -0.00243,-0.039759 0.013253,-0.039759 0.01568,0 0.021644,-0.017892 0.013253,-0.039759 -0.00839,-0.021867 -0.00271,-0.039759 0.012626,-0.039759 0.015336,0 0.022949,-0.014803 0.016918,-0.032896 -0.00603,-0.018093 0.00559,-0.04945 0.025822,-0.069683 0.020233,-0.020233 0.030511,-0.053141 0.022841,-0.073128 -0.00767,-0.019988 -0.00112,-0.036341 0.014565,-0.036341 0.01568,0 0.021644,-0.017892 0.013253,-0.039759 -0.00839,-0.021867 -0.00562,-0.039759 0.00616,-0.039759 0.030574,0 0.086574,-0.1317143 0.06846,-0.1610225 -0.00833,-0.013486 -0.00433,-0.02452 0.00889,-0.02452 0.013225,0 0.045559,-0.047711 0.071855,-0.1060241 0.026296,-0.058313 0.055948,-0.1060241 0.065894,-0.1060241 0.00995,0 0.3003633,0.2754151 0.645372,0.6120337 0.3450087,0.3366185 0.6272886,0.6060814 0.6272886,0.5988063 0,-0.00728 0.2167349,0.2063457 0.481633,0.4747133 C 3.632077,5.7177767 3.859755,5.93735 3.8731302,5.93735 c 0.013375,0 0.2751664,0.2564458 0.5817582,0.5698795 0.3065917,0.3134338 0.5701554,0.5698795 0.585697,0.5698795 0.015541,0 0.2337489,0.2117169 0.4849054,0.470482 L 5.9821352,8.0180723 7.4820316,6.5207997 c 0.8249427,-0.8235 1.4998961,-1.5072247 1.4998961,-1.5193884 0,-0.012164 -0.9542169,-0.9777295 -2.1204819,-2.1457018 C 5.6951807,1.6877369 4.7409639,0.71903008 4.7409639,0.70302747 c 0,-0.0160026 0.026661,-0.031104 0.059246,-0.0335585 0.032585,-0.002454 0.063423,-0.0169949 0.068529,-0.0323118 0.00511,-0.0153169 0.020192,-0.0211068 0.033525,-0.0128664 0.013333,0.00824 0.024242,0.002725 0.024242,-0.012256 0,-0.0149811 0.016354,-0.020963 0.036341,-0.0132929 0.019988,0.00767 0.054351,-0.004064 0.076363,-0.0260757 0.022012,-0.0220117 0.046116,-0.0339266 0.053565,-0.0264776 0.00745,0.007449 0.059562,-0.006889 0.1158058,-0.0318619 0.056245,-0.024973 0.1112085,-0.0435633 0.1221422,-0.0413118 0.010934,0.002251 0.01988,-0.00746 0.01988,-0.0215804 0,-0.0141208 0.017892,-0.0188085 0.039759,-0.0104172 0.021867,0.008391 0.039759,0.002427 0.039759,-0.013253 0,-0.0156805 0.016685,-0.0221073 0.037078,-0.0142819 0.020393,0.007825 0.04463,0.002008 0.053861,-0.0129272 0.00923,-0.0149355 0.034293,-0.0204364 0.055693,-0.0122242 0.0214,0.008212 0.03891,0.002102 0.03891,-0.0135788 0,-0.0156805 0.016685,-0.0221073 0.037078,-0.0142819 0.020393,0.007825 0.04463,0.002008 0.053861,-0.0129272 0.00923,-0.0149355 0.034293,-0.0204364 0.055693,-0.0122242 0.0214,0.008212 0.03891,0.002844 0.03891,-0.0119291 0,-0.0147732 0.023855,-0.0206221 0.053012,-0.0129974 0.031682,0.008285 0.053012,8.1325e-4 0.053012,-0.0185704 0,-0.0187578 0.017773,-0.0256132 0.042151,-0.0162584 0.023183,0.008896 0.055775,0.007755 0.072425,-0.002536 0.030311,-0.0187334 0.08705,-0.0309412 0.1946698,-0.0418853 0.031592,-0.003213 0.066164,-0.0145697 0.076827,-0.025238 0.010663,-0.0106683 0.046135,-0.0126837 0.078826,-0.004479 0.032691,0.008205 0.067423,0.001998 0.077183,-0.0137931 0.010888,-0.0176175 0.058093,-0.0222592 0.1221689,-0.012013 0.072284,0.0115587 0.1044242,0.007016 0.1044242,-0.0147599 0,-0.0173019 0.00912,-0.0258218 0.020266,-0.018933 0.011146,0.006889 0.3063571,0.004216 0.6560241,-0.005939 0.3857297,-0.0112027 0.6425482,-0.008743 0.6530236,0.006253 0.0095,0.0135947 0.071597,0.0172706 0.1380034,0.008169 0.075613,-0.0103639 0.1273815,-0.005799 0.1385138,0.0122132 0.01022,0.0165357 0.055779,0.022595 0.1071774,0.0142543 0.054008,-0.008764 0.089401,-0.003483 0.089401,0.0133402 0,0.015865 0.034217,0.0228261 0.079518,0.0161772 0.043735,-0.006419 0.079518,-5.1581e-4 0.079518,0.0131181 0,0.0136339 0.029819,0.0173047 0.066265,0.008157 0.041545,-0.0104273 0.066265,-0.005403 0.066265,0.0134695 0,0.017815 0.027047,0.0249307 0.066265,0.0174337 0.036446,-0.006967 0.066265,-0.001003 0.066265,0.0132544 0,0.014257 0.023855,0.0196835 0.053012,0.0120589 0.029157,-0.007625 0.053012,-0.001661 0.053012,0.013253 0,0.0149138 0.023283,0.0210272 0.051741,0.0135854 0.028458,-0.007442 0.055513,-0.002214 0.060124,0.0116179 0.00461,0.0138317 0.05284,0.0274751 0.107176,0.0303187 0.054336,0.002844 0.098847,0.0153921 0.098912,0.0278855 5.3e-5,0.0124934 0.01801,0.0158497 0.039878,0.007458 0.021867,-0.008391 0.039759,-0.003181 0.039759,0.0115791 0,0.0147598 0.01491,0.0244821 0.033133,0.0216051 0.018223,-0.002877 0.078387,0.0148711 0.1336969,0.0394403 0.05531,0.0245692 0.1119671,0.037624 0.1259037,0.0290107 0.013937,-0.008613 0.025339,-0.001753 0.025339,0.0152456 0,0.0169984 0.017892,0.0240405 0.039759,0.0156492 0.021867,-0.008391 0.039759,-0.002427 0.039759,0.013253 0,0.0156805 0.017891,0.0216443 0.039759,0.013253 0.021867,-0.008391 0.039759,-0.005618 0.039759,0.006163 0,0.0305741 0.1317143,0.0865736 0.1610223,0.0684602 0.01349,-0.008335 0.02452,-0.004437 0.02452,0.008662 0,0.0323508 0.130447,0.0897529 0.161022,0.0708564 0.01349,-0.008335 0.02452,-0.001818 0.02452,0.0144806 0,0.0162991 0.01193,0.0222629 0.02651,0.013253 0.01458,-0.00901 0.02651,-0.001762 0.02651,0.0161064 0,0.0178684 0.0074,0.0251042 0.01641,0.0160795 0.009,-0.009025 0.03384,0.001025 0.05515,0.022332 0.02131,0.0213073 0.04971,0.0319631 0.06311,0.0236795 0.0134,-0.008284 0.02437,-0.001725 0.02437,0.0145737 0,0.016299 0.01193,0.0222629 0.02651,0.013253 0.01458,-0.00901 0.02651,-0.003046 0.02651,0.013253 0,0.0162991 0.01193,0.0222629 0.02651,0.013253 0.01458,-0.00901 0.02651,-0.003992 0.02651,0.01115 0,0.0343542 0.199443,0.13840303 0.222019,0.11582679 0.0091,-0.009094 0.01654,-0.003991 0.01654,0.0113402 0,0.0332056 0.129754,0.12232554 0.178099,0.12232554 0.01867,0 0.03395,0.00835 0.03395,0.018566 0,0.010211 0.04771,0.05014 0.106024,0.088729 0.05831,0.03859 0.106024,0.061751 0.106024,0.051468 0,-0.010282 0.01491,2.359e-4 0.03313,0.023374 0.01822,0.023138 0.15241,0.1375845 0.298193,0.2543258 0.145783,0.1167413 0.402229,0.3536675 0.56988,0.5265027 0.296009,0.3051632 0.561622,0.5975726 0.556638,0.6127932 -0.0013,0.00412 0.06188,0.099539 0.140512,0.2120481 0.07863,0.1125091 0.193851,0.291038 0.256048,0.3967308 0.0622,0.1056928 0.12564,0.1921687 0.140987,0.1921687 0.01535,0 0.02052,0.00739 0.01149,0.016413 -0.009,0.00903 0.02535,0.099348 0.0764,0.2007139 0.130558,0.2592528 0.310692,0.7078405 0.3971,0.9888974 0.04034,0.1312048 0.08023,0.244518 0.08865,0.2518072 0.0084,0.00729 0.0187,0.055 0.02284,0.1060241 0.0041,0.051024 0.01913,0.096772 0.0333,0.1016615 0.01417,0.00489 0.01947,0.019076 0.01178,0.031524 -0.02182,0.035301 0.01749,0.2386578 0.04308,0.2228459 0.01254,-0.00775 0.01552,0.022287 0.0066,0.066747 -0.0089,0.04446 -0.0051,0.080836 0.0083,0.080836 0.01347,0 0.01962,0.041747 0.01367,0.092771 -0.006,0.051024 -2.65e-4,0.092771 0.01265,0.092771 0.01291,0 0.01893,0.047711 0.01337,0.1060241 -0.0056,0.058313 8e-5,0.1060223 0.01255,0.1060204 0.01247,-2.1e-6 0.01908,0.1043654 0.01471,0.2319277 -0.0057,0.1657565 -1.32e-4,0.2205874 0.01947,0.1921724 0.01966,-0.028504 0.02637,0.031523 0.02367,0.2120482 -0.0033,0.2180147 -0.0064,0.2340217 -0.02316,0.1192771 -0.0139,-0.094976 -0.01836,-0.04498 -0.01572,0.1764347 0.0021,0.1751465 -0.0065,0.302619 -0.01994,0.2943139 -0.01328,-0.00823 -0.01788,0.045088 -0.01052,0.1217581 0.0076,0.078814 0.0023,0.136409 -0.01241,0.136409 -0.01403,0 -0.02064,0.041747 -0.01468,0.092771 0.006,0.051024 4.45e-4,0.092771 -0.01225,0.092771 -0.01269,0 -0.02045,0.026837 -0.01724,0.059639 0.0032,0.032801 -0.003,0.079941 -0.0137,0.1047547 -0.01075,0.024814 -0.01233,0.056791 -0.0035,0.07106 0.0088,0.014269 0.0034,0.033736 -0.01198,0.043259 -0.01541,0.00952 -0.02076,0.040167 -0.0119,0.068097 0.0097,0.03052 0.0036,0.050781 -0.01527,0.050781 -0.01833,0 -0.02562,0.022043 -0.01752,0.053012 0.0076,0.029157 0.0017,0.053012 -0.01325,0.053012 -0.01491,0 -0.02088,0.023855 -0.01325,0.053012 0.0076,0.029157 0.0018,0.053012 -0.013,0.053012 -0.01477,0 -0.02014,0.01751 -0.01193,0.03891 0.0082,0.021401 0.0027,0.046463 -0.01223,0.055693 -0.01493,0.00923 -0.02075,0.033468 -0.01293,0.053861 0.0078,0.020393 0.0014,0.037078 -0.01428,0.037078 -0.01568,0 -0.02164,0.017892 -0.01325,0.039759 0.0084,0.021868 0.0024,0.039759 -0.01325,0.039759 -0.01568,0 -0.02164,0.017892 -0.01325,0.039759 0.0084,0.021867 0.0024,0.039759 -0.01325,0.039759 -0.01568,0 -0.02164,0.017892 -0.01325,0.039759 0.0084,0.021868 0.0024,0.039759 -0.01325,0.039759 -0.01568,0 -0.02194,0.017121 -0.01391,0.038047 0.008,0.020926 0.004,0.041799 -0.009,0.046385 -0.01299,0.00459 -0.02991,0.044444 -0.03761,0.088572 -0.01334,0.0765 0.104465,0.1986038 2.531692,2.6240963 2.369037,2.367343 6.314912,6.344669 6.652958,6.705986 0.08149,0.0871 0.143115,0.173268 0.136948,0.191491 -0.0062,0.01822 -0.0013,0.03312 0.01088,0.03311 0.01215,-10e-6 0.01926,0.09839 0.0158,0.218674 -0.007,0.242301 -0.01217,0.282959 -0.0424,0.331344 -0.01138,0.01822 -0.01411,0.03313 -0.0061,0.03313 0.01544,0 0.01173,0.0047 -0.252554,0.318073 -0.247279,0.293235 -2.305672,2.341204 -2.488104,2.475503 -0.104006,0.07656 -0.212793,0.129393 -0.323963,0.15732 -0.209908,0.05273 -0.419182,0.07224 -0.419182,0.03909 z"
     style="opacity:0.5;fill:#ffffff;stroke-width:0.026506" />
</svg>
