<?xml version="1.0" encoding="UTF-8" standalone="no"?>
<!DOCTYPE svg PUBLIC "-//W3C//DTD SVG 1.1//EN" "http://www.w3.org/Graphics/SVG/1.1/DTD/svg11.dtd">
<svg version="1.1" xmlns="http://www.w3.org/2000/svg" xmlns:xlink="http://www.w3.org/1999/xlink" preserveAspectRatio="xMidYMid meet" viewBox="0 0 640 640" width="640" height="640"><defs><path d="M60.13 280.99C60.13 324.11 105 344.93 119.96 344.93C136.1 344.93 179.8 324.11 179.8 280.99C179.8 277.79 179.8 252.22 179.8 249.02C179.8 205.9 148.12 185.08 119.96 185.08C92.69 185.08 60.13 205.9 60.13 249.02C60.13 255.41 60.13 277.79 60.13 280.99Z" id="bFd8hB4jR"></path><path d="M220.27 207.08C220.27 267.2 263.98 325.57 320 325.57C376.02 325.57 419.73 267.5 419.73 207.08C419.73 205.2 419.73 190.18 419.73 188.3C419.73 127.88 376.02 85.35 320 85.35C263.98 85.35 220.27 127.88 220.27 188.3C220.27 192.06 220.27 205.2 220.27 207.08Z" id="f1az8x15PH"></path><path d="M460.2 280.99C460.2 324.11 505.08 344.93 520.04 344.93C536.17 344.93 579.87 324.11 579.87 280.99C579.87 277.79 579.87 252.22 579.87 249.02C579.87 205.9 548.19 185.08 520.04 185.08C492.76 185.08 460.2 205.9 460.2 249.02C460.2 255.41 460.2 277.79 460.2 280.99Z" id="g1uGlXYUgH"></path><path d="M594.54 388.34C578.99 379.54 561.1 386.58 539.98 405.35C537.99 407.35 522.03 423.3 520.04 425.3C520.04 451.7 520.04 502.73 520.04 526.78C565.5 513.88 605.98 496.57 640 476.33C640 470.17 640 465.48 640 465.19C640 443.19 631.79 409.46 594.54 388.34Z" id="b20pYAouRC"></path><path d="M119.96 436.44C119.96 436.44 119.96 432.92 119.96 425.59C117.97 423.57 102.01 407.38 100.02 405.35C78.9 386.58 61.01 379.54 45.46 388.34C8.21 409.46 0 443.19 0 465.19C0 465.48 0 475.75 0 485.13C34.61 503.9 75.09 519.45 119.96 531.18C119.96 512.12 119.96 466.07 119.96 436.44Z" id="a1WACvyKLB"></path><path d="M479.85 519.74C479.85 519.45 479.85 437.91 479.85 437.32C479.85 433.22 479.56 429.11 479.27 425C479.27 424.71 479.27 424.42 478.97 424.12C478.39 420.31 477.8 416.79 476.92 412.98C476.92 412.98 476.92 412.98 476.92 412.98C474.87 405.35 471.35 398.02 466.07 390.69C466.07 390.69 466.07 390.69 466.07 390.69C457.27 378.66 444.36 366.34 423.24 354.61C412.1 348.45 407.11 345.52 400.07 345.52C388.93 345.52 379.54 354.02 363.12 368.98C363.12 368.98 363.12 368.98 363.12 368.98C354.32 377.08 349.43 381.58 348.45 382.47C347.86 383.06 332.03 405.35 320 405.35C307.97 405.35 292.14 382.77 291.55 382.47C290.57 381.58 285.68 377.08 276.88 368.98C276.88 368.98 276.88 368.98 276.88 368.98C260.75 354.02 251.07 345.52 239.93 345.52C232.89 345.52 226.73 348.45 216.76 354.61C196.22 367.52 182.44 378.66 173.93 390.69C173.93 390.69 173.93 390.69 173.93 390.69C173.93 390.69 173.93 390.69 173.93 390.69C168.65 398.02 165.13 405.35 163.08 412.98C163.08 412.98 163.08 412.98 163.08 413.27C162.2 416.79 161.32 420.6 161.03 424.12C161.03 424.42 161.03 424.71 160.73 425C160.15 429.11 159.85 433.22 159.85 437.32C159.85 437.91 159.85 519.16 159.85 519.74C159.85 528.25 160.73 535.29 163.08 540.86C209.72 549.66 259.87 554.65 312.08 554.65C371.04 554.65 427.06 548.49 478.09 537.34C479.27 532.36 479.85 526.49 479.85 519.74Z" id="h6kuxXujfi"></path></defs><g><g><g><use xlink:href="#bFd8hB4jR" opacity="1" fill="#ffffff" fill-opacity="1"></use><g><use xlink:href="#bFd8hB4jR" opacity="1" fill-opacity="0" stroke="#000000" stroke-width="1" stroke-opacity="0"></use></g></g><g><use xlink:href="#f1az8x15PH" opacity="1" fill="#ffffff" fill-opacity="1"></use><g><use xlink:href="#f1az8x15PH" opacity="1" fill-opacity="0" stroke="#000000" stroke-width="1" stroke-opacity="0"></use></g></g><g><use xlink:href="#g1uGlXYUgH" opacity="1" fill="#ffffff" fill-opacity="1"></use><g><use xlink:href="#g1uGlXYUgH" opacity="1" fill-opacity="0" stroke="#000000" stroke-width="1" stroke-opacity="0"></use></g></g><g><use xlink:href="#b20pYAouRC" opacity="1" fill="#ffffff" fill-opacity="1"></use><g><use xlink:href="#b20pYAouRC" opacity="1" fill-opacity="0" stroke="#000000" stroke-width="1" stroke-opacity="0"></use></g></g><g><use xlink:href="#a1WACvyKLB" opacity="1" fill="#ffffff" fill-opacity="1"></use><g><use xlink:href="#a1WACvyKLB" opacity="1" fill-opacity="0" stroke="#000000" stroke-width="1" stroke-opacity="0"></use></g></g><g><use xlink:href="#h6kuxXujfi" opacity="1" fill="#ffffff" fill-opacity="1"></use><g><use xlink:href="#h6kuxXujfi" opacity="1" fill-opacity="0" stroke="#000000" stroke-width="1" stroke-opacity="0"></use></g></g></g></g></svg>