<?xml version="1.0" encoding="utf-8"?>
<!-- Generator: Adobe Illustrator 23.0.2, SVG Export Plug-In . SVG Version: 6.00 Build 0)  -->
<svg version="1.1" id="Layer_1" xmlns="http://www.w3.org/2000/svg" xmlns:xlink="http://www.w3.org/1999/xlink" x="0px" y="0px"
	 viewBox="0 0 22.26 20" style="enable-background:new 0 0 22.26 20;" xml:space="preserve">
<style type="text/css">
	.st0{fill:#C4C4C4;}
</style>
<g>
	<polygon class="st0" points="0,0.88 0,11.57 5.93,6.23 	"/>
	<polygon class="st0" points="16.24,0 0.97,0 8.61,6.87 	"/>
	<path class="st0" d="M7.9,8L6.91,7.11l-5.94,5.34h5.62C6.59,10.81,7.08,9.28,7.9,8z"/>
	<path class="st0" d="M14.84,4.2c0.82,0,1.62,0.12,2.37,0.35V0.88l-3.83,3.45C13.86,4.25,14.34,4.2,14.84,4.2z"/>
</g>
<path class="st0" d="M15.01,5.5c-4,0-7.25,3.25-7.25,7.25S11.01,20,15.01,20s7.25-3.25,7.25-7.25S19.01,5.5,15.01,5.5z M17.64,13.53
	l-2.54,2.55c-0.02,0.03-0.06,0.04-0.09,0.04c-0.03,0-0.07-0.02-0.09-0.04l-2.54-2.55c-0.04-0.04-0.05-0.09-0.03-0.14
	c0.02-0.05,0.07-0.08,0.12-0.08h1.4v-3.8c0-0.07,0.06-0.13,0.13-0.13h2.03c0.07,0,0.13,0.06,0.13,0.13v3.8h1.39
	c0.05,0,0.1,0.03,0.12,0.08C17.69,13.44,17.68,13.5,17.64,13.53z"/>
</svg>
