<?xml version="1.0" encoding="UTF-8" standalone="no"?>
<svg
   xmlns:dc="http://purl.org/dc/elements/1.1/"
   xmlns:cc="http://creativecommons.org/ns#"
   xmlns:rdf="http://www.w3.org/1999/02/22-rdf-syntax-ns#"
   xmlns:svg="http://www.w3.org/2000/svg"
   xmlns="http://www.w3.org/2000/svg"
   xmlns:sodipodi="http://sodipodi.sourceforge.net/DTD/sodipodi-0.dtd"
   xmlns:inkscape="http://www.inkscape.org/namespaces/inkscape"
   inkscape:version="1.0 (4035a4fb49, 2020-05-01)"
   sodipodi:docname="archived_dist_status.svg"
   xml:space="preserve"
   style="enable-background:new 0 0 22.26 20;"
   viewBox="0 0 22.26 20"
   y="0px"
   x="0px"
   id="Layer_1"
   version="1.1"><metadata
   id="metadata23"><rdf:RDF><cc:Work
       rdf:about=""><dc:format>image/svg+xml</dc:format><dc:type
         rdf:resource="http://purl.org/dc/dcmitype/StillImage" /><dc:title></dc:title></cc:Work></rdf:RDF></metadata><defs
   id="defs21" /><sodipodi:namedview
   inkscape:current-layer="Layer_1"
   inkscape:window-maximized="1"
   inkscape:window-y="-9"
   inkscape:window-x="2391"
   inkscape:cy="9.9518072"
   inkscape:cx="11.13"
   inkscape:zoom="41.5"
   showgrid="false"
   id="namedview19"
   inkscape:window-height="1001"
   inkscape:window-width="1920"
   inkscape:pageshadow="2"
   inkscape:pageopacity="0"
   guidetolerance="10"
   gridtolerance="10"
   objecttolerance="10"
   borderopacity="1"
   bordercolor="#666666"
   pagecolor="#ffffff" />
<style
   id="style2"
   type="text/css">
	.st0{fill:#00B7C3;}
	.st1{fill:#1DA1F3;}
	.st2{fill:#FFFFFF;}
</style>
<g
   id="g14">
	<polygon
   id="polygon4"
   points="0,0.88 0,11.57 5.93,6.23  "
   class="st0" />
	<polygon
   id="polygon6"
   points="16.24,0 0.97,0 8.61,6.87  "
   class="st0" />
	<path
   id="path8"
   d="M7.9,8L6.91,7.11l-5.94,5.34h5.62C6.59,10.81,7.08,9.28,7.9,8z"
   class="st0" />
	<path
   id="path10"
   d="M14.84,4.2c0.82,0,1.62,0.12,2.37,0.35V0.88l-3.83,3.45C13.86,4.25,14.34,4.2,14.84,4.2z"
   class="st0" />
	<path
   id="path12"
   d="M15.01,5.5c-4,0-7.25,3.25-7.25,7.25S11.01,20,15.01,20s7.25-3.25,7.25-7.25S19.01,5.5,15.01,5.5z"
   class="st1" />
</g>
<path
   id="path16"
   d="M17.64,13.53l-2.54,2.55c-0.02,0.03-0.06,0.04-0.09,0.04s-0.07-0.02-0.09-0.04l-2.54-2.55  c-0.04-0.04-0.05-0.09-0.03-0.14c0.02-0.05,0.07-0.08,0.12-0.08h1.4v-3.8c0-0.07,0.06-0.13,0.13-0.13h2.03  c0.07,0,0.13,0.06,0.13,0.13v3.8h1.39c0.05,0,0.1,0.03,0.12,0.08S17.68,13.5,17.64,13.53z"
   class="st2" />
<path
   id="path25"
   d="m 1.0336146,12.423218 c 0,-0.0058 1.2822289,-1.162276 2.8493976,-2.5699794 C 5.4501808,8.4455345 6.7723958,7.2559563 6.8212676,7.2097314 l 0.088858,-0.084045 0.4774072,0.4295182 c 0.262574,0.236235 0.4814543,0.4324846 0.4864008,0.4361102 0.00495,0.00363 -0.054035,0.1122159 -0.1310692,0.2413117 C 7.0659148,9.3670748 6.6824471,10.620111 6.5954628,11.981928 l -0.028859,0.451807 H 3.8001095 c -1.5215723,0 -2.7664949,-0.0047 -2.7664949,-0.01052 z"
   style="opacity:0.5;fill:#0000ff;stroke-width:0.0240964" /><path
   id="path27"
   d="m 0.02156638,6.2306646 c 0,-2.9099981 0.0055749,-5.29090556 0.01238877,-5.29090556 0.01267948,0 5.61155415,5.04237996 5.77886425,5.20447976 l 0.092458,0.089579 -2.8865757,2.5999588 C 1.4310851,10.263753 0.1072501,11.453498 0.0768462,11.477653 l -0.05527982,0.04392 z"
   style="opacity:0.5;fill:#0000ff;stroke-width:0.0240964" /><path
   id="path29"
   d="M 4.8050787,3.4288439 1.005207,0.01204819 4.8165432,0.00594962 c 2.096235,-0.00335422 5.5163658,-0.00335422 7.6002898,0 L 16.205787,0.01204819 12.474746,3.373494 C 10.422673,5.2222892 8.7124847,6.7598472 8.6743273,6.7902896 l -0.069377,0.05535 z"
   style="opacity:0.5;fill:#0000ff;stroke-width:0.0240964" /><path
   id="path31"
   d="M 4.8189808,3.4267308 1.0501302,0.03614458 4.8390045,0.03004554 c 2.0838807,-0.0033545 5.4845065,-0.0033545 7.5569465,0 l 3.768073,0.006099 -3.510988,3.16061596 C 8.5697818,6.8725347 8.6289688,6.8195745 8.6056907,6.8182971 8.5958681,6.8177573 6.8918485,5.291553 4.8189808,3.4267308 Z"
   style="opacity:0.5;fill:#0000ff;stroke-width:0.0240964" /><path
   id="path33"
   d="M 16.86494,4.4450214 C 15.875905,4.1842752 14.711688,4.1226142 13.672169,4.2759212 c -0.119277,0.017591 -0.220137,0.029014 -0.224133,0.025384 -0.0056,-0.00513 3.267333,-2.9631129 3.664917,-3.3121962 l 0.08934,-0.0784386 v 1.809725 c 0,0.9953487 -0.0081,1.8084448 -0.01807,1.8068798 -0.0099,-0.00156 -0.153614,-0.038579 -0.319277,-0.082254 z"
   style="opacity:0.5;fill:#0000ff;stroke-width:0.0240964" /><path
   id="path35"
   d="M 14.623976,19.974207 C 12.900927,19.891424 11.256724,19.174033 9.9887924,17.951807 8.8013925,16.80721 8.0688751,15.351858 7.8238813,13.650602 7.8037913,13.511096 7.792977,13.184461 7.7935654,12.73494 7.7943487,12.136508 7.8020891,11.987693 7.8474596,11.698795 8.0516418,10.398659 8.5693682,9.2204699 9.3829434,8.2044973 9.6341171,7.890838 10.136646,7.3877552 10.45497,7.1312894 c 0.793358,-0.639189 1.785509,-1.1413134 2.736963,-1.3851675 0.698753,-0.1790878 1.254953,-0.2397941 2.022404,-0.2207346 1.133277,0.028145 2.081852,0.2708837 3.105666,0.7947355 0.665506,0.3405168 1.249537,0.7683021 1.798807,1.3175728 0.385432,0.3854316 0.652264,0.7123136 0.944848,1.1574851 0.634141,0.9648571 1.035749,2.0996903 1.149985,3.2495413 0.03236,0.325764 0.03172,1.081633 -0.0012,1.414948 -0.135914,1.375767 -0.672145,2.695001 -1.541884,3.793342 -0.256235,0.323583 -0.831233,0.900106 -1.147827,1.15087 -1.005076,0.79609 -2.175864,1.309554 -3.418122,1.499064 -0.177557,0.02709 -0.439659,0.05484 -0.582448,0.06167 -0.14279,0.0068 -0.324678,0.01556 -0.404196,0.0194 -0.07952,0.0038 -0.301807,-5.72e-4 -0.493976,-0.0098 z m 1.75293,-5.160871 c 1.37646,-1.376287 1.372279,-1.371431 1.269445,-1.474265 -0.03274,-0.03274 -0.135555,-0.03787 -0.759036,-0.03787 h -0.72117 v -1.92599 c 0,-1.7187711 -0.0041,-1.9300634 -0.03787,-1.9638552 -0.0333,-0.033298 -0.16829,-0.037866 -1.119116,-0.037866 H 13.92791 l -0.03751,0.053554 c -0.03318,0.047377 -0.03751,0.2738829 -0.03751,1.9638552 V 13.3012 h -0.721171 c -0.623481,0 -0.726299,0.0051 -0.759036,0.03787 -0.102639,0.102639 -0.106559,0.09809 1.26928,1.4741 1.029708,1.029837 1.319932,1.307311 1.367388,1.307311 0.04745,0 0.337806,-0.277529 1.367553,-1.307146 z"
   style="opacity:0.5;fill:#2b0000;stroke-width:0.0240964" /></svg>
