<?xml version="1.0" encoding="utf-8"?>
<!-- Generator: Adobe Illustrator 14.0.0, SVG Export Plug-In . SVG Version: 6.00 Build 43363)  -->
<!DOCTYPE svg PUBLIC "-//W3C//DTD SVG 1.1//EN" "http://www.w3.org/Graphics/SVG/1.1/DTD/svg11.dtd">
<svg version="1.1" id="Capa_1" xmlns="http://www.w3.org/2000/svg" xmlns:xlink="http://www.w3.org/1999/xlink" x="0px" y="0px"
	 width="612px" height="792px" viewBox="0 0 612 792" enable-background="new 0 0 612 792" xml:space="preserve">
<path fill="#65676F" d="M450.801,191.872H292.856c0.012,0.458,0.032,82.199,0.032,82.199c0,33.036-26.873,59.913-59.913,59.913
	h-5.907c-33.037,0-59.913-26.877-59.913-59.913v-24.86c0-22.25,17.586-40.473,39.593-41.496c-0.004-0.004-0.006-0.006-0.01-0.01
	h15.857V192.07c0-2.495,1.977-3.36,4.472-3.36h5.907c2.495,0,4.523,2.028,4.523,4.523v80.838c0,2.494-2.028,4.523-4.523,4.523
	h-5.907c-2.496,0-4.523-2.029-4.523-4.523v-24.86c0-7.645-6.199-13.848-13.848-13.848s-13.847,6.202-13.847,13.848v24.856
	c0,17.767,14.454,32.222,32.218,32.222h5.907c17.766,0,32.218-14.455,32.218-32.222v-80.834c0-17.764-14.451-32.218-32.218-32.218
	h-5.907c-6.149,0-11.896,1.593-16.788,4.41c-4.677,2.697-8.561,6.516-11.26,11.134c-1.978,3.38-3.312,7.186-3.861,11.3
	c-0.172,1.311-0.274,2.649-0.28,4.012h-34.009c-7.649,0-13.847,6.203-13.847,13.849v411.903c0,7.649,6.198,13.848,13.847,13.848
	h289.93c7.648,0,13.848-6.198,13.848-13.848V205.72C464.648,198.074,458.449,191.872,450.801,191.872z M230.023,357.428h89.043
	c7.647,0,13.849,6.202,13.849,13.848c0,7.649-6.201,13.847-13.849,13.847h-89.043c-7.646,0-13.847-6.198-13.847-13.847
	C216.176,363.632,222.377,357.428,230.023,357.428z M381.842,495.293H230.023c-7.646,0-13.847-6.202-13.847-13.848
	c0-7.647,6.202-13.848,13.847-13.848h151.819c7.649,0,13.849,6.2,13.849,13.848C395.69,489.091,389.491,495.293,381.842,495.293z
	 M381.842,440.209H230.023c-7.646,0-13.847-6.198-13.847-13.849c0-7.648,6.202-13.848,13.847-13.848h151.819
	c7.649,0,13.849,6.199,13.849,13.848C395.69,434.011,389.491,440.209,381.842,440.209z"/>
</svg>
