<?xml version="1.0" encoding="utf-8"?>
<!-- Generator: Adobe Illustrator 23.0.2, SVG Export Plug-In . SVG Version: 6.00 Build 0)  -->
<svg version="1.1" id="Layer_1" xmlns="http://www.w3.org/2000/svg" xmlns:xlink="http://www.w3.org/1999/xlink" x="0px" y="0px"
	 viewBox="0 0 22.26 20" style="enable-background:new 0 0 22.26 20;" xml:space="preserve">
<style type="text/css">
	.st0{fill:#C4C4C4;}
</style>
<g>
	<polygon class="st0" points="0,0.88 0,11.57 5.93,6.23 	"/>
	<polygon class="st0" points="16.24,0 0.97,0 8.61,6.87 	"/>
	<path class="st0" d="M7.9,8L6.91,7.11l-5.94,5.34h5.62C6.59,10.81,7.08,9.28,7.9,8z"/>
	<path class="st0" d="M14.84,4.2c0.82,0,1.62,0.12,2.37,0.35V0.88l-3.83,3.45C13.86,4.25,14.34,4.2,14.84,4.2z"/>
	<path class="st0" d="M15.01,5.5c-4,0-7.25,3.25-7.25,7.25S11.01,20,15.01,20s7.25-3.25,7.25-7.25S19.01,5.5,15.01,5.5z
		 M12.31,14.11c0.13,0.13,0.31,0.2,0.54,0.2c0.22,0,0.41-0.07,0.54-0.2c0.13-0.14,0.2-0.31,0.2-0.53c0-0.09,0.06-0.15,0.16-0.15
		l0.81,0.04c0.03,0,0.07,0.02,0.1,0.04c0.03,0.03,0.05,0.07,0.05,0.11c0,0.33-0.08,0.62-0.24,0.88c-0.16,0.26-0.38,0.46-0.66,0.6
		c-0.28,0.14-0.61,0.21-0.97,0.21c-0.37,0-0.7-0.07-0.98-0.22c-0.28-0.15-0.51-0.36-0.66-0.62c-0.15-0.27-0.23-0.58-0.23-0.92v-1.6
		c0-0.35,0.08-0.66,0.23-0.92c0.16-0.27,0.38-0.48,0.66-0.62c0.28-0.15,0.61-0.22,0.98-0.22c0.37,0,0.69,0.07,0.97,0.21
		c0.28,0.14,0.5,0.34,0.66,0.59c0.16,0.25,0.24,0.55,0.24,0.88c0,0.03-0.01,0.13-0.15,0.15l-0.82,0.05c-0.1,0-0.16-0.06-0.16-0.15
		c0-0.22-0.06-0.4-0.2-0.53s-0.32-0.2-0.54-0.2c-0.22,0-0.4,0.07-0.54,0.2s-0.2,0.31-0.19,0.52v1.67
		C12.11,13.8,12.17,13.98,12.31,14.11z M16.65,14.11c0.13,0.13,0.31,0.2,0.54,0.2c0.22,0,0.41-0.07,0.54-0.2
		c0.13-0.14,0.2-0.31,0.2-0.53c0-0.09,0.06-0.15,0.16-0.15l0.81,0.04c0.03,0,0.07,0.01,0.11,0.03c0.03,0.03,0.05,0.07,0.05,0.11
		c0,0.33-0.08,0.62-0.24,0.88c-0.16,0.26-0.38,0.46-0.66,0.6c-0.28,0.14-0.61,0.21-0.97,0.21c-0.37,0-0.7-0.07-0.98-0.22
		c-0.28-0.15-0.51-0.36-0.66-0.62c-0.15-0.27-0.23-0.58-0.23-0.92v-1.6c0-0.35,0.08-0.66,0.23-0.92c0.16-0.27,0.38-0.48,0.66-0.62
		c0.28-0.15,0.61-0.22,0.98-0.22s0.69,0.07,0.97,0.21c0.28,0.14,0.5,0.34,0.66,0.59c0.16,0.25,0.24,0.55,0.24,0.88
		c0,0.03-0.01,0.13-0.15,0.15l-0.82,0.05c-0.1,0-0.16-0.06-0.16-0.15c0-0.22-0.06-0.4-0.2-0.53c-0.14-0.13-0.32-0.2-0.54-0.2
		c-0.22,0-0.4,0.07-0.54,0.2c-0.13,0.13-0.2,0.31-0.2,0.53v1.67C16.45,13.8,16.51,13.98,16.65,14.11z"/>
</g>
</svg>
