<?xml version="1.0" encoding="utf-8"?>
<!-- Generator: Adobe Illustrator 23.0.2, SVG Export Plug-In . SVG Version: 6.00 Build 0)  -->
<svg version="1.1" id="Layer_1" xmlns="http://www.w3.org/2000/svg" xmlns:xlink="http://www.w3.org/1999/xlink" x="0px" y="0px"
	 viewBox="0 0 16.41 15.32" style="enable-background:new 0 0 16.41 15.32;" xml:space="preserve">
<style type="text/css">
	.st0{fill:#C4C4C4;}
</style>
<path class="st0" d="M13.97,0.94H2.45c-0.78,0-1.43,0.67-1.43,1.44v7.92c0,0.78,0.66,1.44,1.44,1.44h1.92v2.39
	c0,0.1,0.06,0.18,0.16,0.23c0.03,0.01,0.06,0.02,0.09,0.02c0.07,0,0.13-0.03,0.18-0.08l2.31-2.55h6.85c0.78,0,1.44-0.66,1.44-1.44
	V2.38C15.41,1.6,14.75,0.94,13.97,0.94z M4.85,7.18c-0.53,0-0.96-0.43-0.96-0.96c0-0.53,0.43-0.96,0.96-0.96
	c0.53,0,0.96,0.43,0.96,0.96C5.81,6.75,5.38,7.18,4.85,7.18z M8.2,7.18c-0.53,0-0.96-0.43-0.96-0.96c0-0.53,0.43-0.96,0.96-0.96
	c0.53,0,0.96,0.43,0.96,0.96C9.16,6.75,8.73,7.18,8.2,7.18z M11.56,7.18c-0.53,0-0.96-0.43-0.96-0.96c0-0.53,0.43-0.96,0.96-0.96
	s0.96,0.43,0.96,0.96C12.52,6.75,12.09,7.18,11.56,7.18z"/>
</svg>
