<?xml version="1.0" encoding="utf-8"?>
<!-- Generator: Adobe Illustrator 14.0.0, SVG Export Plug-In . SVG Version: 6.00 Build 43363)  -->
<!DOCTYPE svg PUBLIC "-//W3C//DTD SVG 1.1//EN" "http://www.w3.org/Graphics/SVG/1.1/DTD/svg11.dtd">
<svg version="1.1" id="Capa_1" xmlns="http://www.w3.org/2000/svg" xmlns:xlink="http://www.w3.org/1999/xlink" x="0px" y="0px"
	 width="612px" height="792px" viewBox="0 0 612 792" enable-background="new 0 0 612 792" xml:space="preserve">
<g>
	<g>
		<path fill="#FFFFFF" d="M377.273,478.295c35.454-14.946,63.435-35.288,83.94-61.037c20.508-25.744,30.762-53.779,30.762-84.106
			c0-30.329-10.254-58.362-30.762-84.11c-20.506-25.745-48.486-46.09-83.94-61.039c-35.454-14.947-74.018-22.417-115.693-22.417
			c-41.672,0-80.234,7.476-115.691,22.421c-35.452,14.946-63.434,35.292-83.94,61.038c-20.511,25.745-30.766,53.777-30.766,84.106
			c0,25.961,7.754,50.408,23.242,73.313c15.489,22.908,36.763,42.222,63.814,57.928c-2.18,5.24-4.416,10.034-6.708,14.404
			c-2.292,4.363-5.018,8.559-8.184,12.599c-3.164,4.04-5.615,7.201-7.362,9.485c-1.746,2.29-4.582,5.513-8.51,9.653
			c-3.929,4.146-6.439,6.874-7.528,8.179c0-0.218-0.438,0.275-1.31,1.476c-0.875,1.2-1.365,1.743-1.476,1.641
			c-0.107-0.118-0.545,0.428-1.307,1.628c-0.764,1.201-1.146,1.802-1.146,1.802l-0.82,1.631c-0.325,0.651-0.546,1.303-0.653,1.962
			c-0.11,0.65-0.165,1.364-0.165,2.126c0,0.761,0.108,1.467,0.328,2.125c0.438,2.832,1.693,5.119,3.764,6.873
			c2.074,1.741,4.307,2.612,6.71,2.612h0.983c10.907-1.526,20.29-3.271,28.144-5.237c33.6-8.729,63.929-22.693,90.983-41.892
			c19.633,3.492,38.836,5.236,57.599,5.236C303.252,500.709,341.819,493.242,377.273,478.295z M194.167,450.973l-14.402,10.14
			c-6.109,4.144-12.869,8.404-20.289,12.771l11.457-27.495l-31.745-18.327c-20.95-12.214-37.202-26.615-48.765-43.198
			c-11.565-16.581-17.345-33.817-17.345-51.71c0-22.257,8.567-43.093,25.693-62.511c17.123-19.418,40.197-34.799,69.215-46.148
			c29.016-11.343,60.216-17.019,93.598-17.019c33.381,0,64.584,5.676,93.599,17.019c29.017,11.348,52.09,26.73,69.222,46.148
			c17.125,19.417,25.686,40.253,25.686,62.511c0,22.254-8.561,43.089-25.686,62.507c-17.132,19.424-40.205,34.801-69.222,46.145
			c-29.015,11.345-60.214,17.019-93.599,17.019c-16.36,0-33.051-1.53-50.071-4.582L194.167,450.973z"/>
		<path fill="#FFFFFF" d="M594.407,490.393c15.495-22.807,23.236-47.29,23.236-73.475c0-26.836-8.183-51.93-24.539-75.272
			c-16.366-23.34-38.625-42.762-66.767-58.253c5.015,16.362,7.524,32.943,7.524,49.747c0,29.233-7.301,56.942-21.928,83.128
			c-14.619,26.176-35.563,49.301-62.835,69.378c-25.311,18.326-54.11,32.394-86.403,42.216
			c-32.284,9.814-65.996,14.727-101.124,14.727c-6.543,0-16.145-0.432-28.797-1.303c43.853,28.794,95.344,43.198,154.47,43.198
			c18.766,0,37.964-1.75,57.601-5.24c27.052,19.206,57.384,33.163,90.982,41.896c7.854,1.97,17.236,3.711,28.145,5.237
			c2.617,0.224,5.021-0.547,7.202-2.287c2.183-1.75,3.603-4.144,4.254-7.194c-0.104-1.311,0-2.029,0.329-2.133
			c0.322-0.104,0.267-0.816-0.166-2.124c-0.432-1.311-0.651-1.966-0.651-1.966l-0.815-1.632c-0.228-0.431-0.598-1.035-1.146-1.797
			c-0.547-0.757-0.981-1.306-1.31-1.635c-0.323-0.326-0.809-0.875-1.469-1.633c-0.649-0.757-1.089-1.251-1.311-1.471
			c-1.09-1.31-3.598-4.035-7.522-8.183c-3.931-4.142-6.763-7.359-8.51-9.649c-1.744-2.292-4.2-5.453-7.363-9.494
			c-3.161-4.033-5.891-8.233-8.183-12.599c-2.291-4.362-4.527-9.165-6.708-14.397C557.649,532.46,578.928,513.208,594.407,490.393z"
			/>
	</g>
</g>
</svg>
