<?xml version="1.0" encoding="utf-8"?>
<!-- Generator: Adobe Illustrator 23.0.2, SVG Export Plug-In . SVG Version: 6.00 Build 0)  -->
<svg version="1.1" id="Layer_1" xmlns="http://www.w3.org/2000/svg" xmlns:xlink="http://www.w3.org/1999/xlink" x="0px" y="0px"
	 viewBox="0 0 16.41 15.32" style="enable-background:new 0 0 16.41 15.32;" xml:space="preserve">
<style type="text/css">
	.st0{fill:#00B7C3;}
	.st1{fill:#FFFFFF;}
</style>
<g>
	<g>
		<path class="st0" d="M1.02,2.38v7.92c0,0.78,0.66,1.44,1.44,1.44h1.92v2.39c0,0.1,0.06,0.18,0.16,0.23
			c0.03,0.01,0.06,0.02,0.09,0.02c0.07,0,0.13-0.03,0.18-0.08l2.31-2.55h6.85c0.78,0,1.44-0.66,1.44-1.44V2.38
			c0-0.78-0.66-1.44-1.44-1.44H2.45C1.67,0.94,1.02,1.61,1.02,2.38z"/>
	</g>
	<circle class="st1" cx="11.56" cy="6.22" r="0.96"/>
	<circle class="st1" cx="8.2" cy="6.22" r="0.96"/>
	<circle class="st1" cx="4.85" cy="6.22" r="0.96"/>
</g>
</svg>
