<?xml version="1.0" encoding="utf-8"?>
<!-- Generator: Adobe Illustrator 14.0.0, SVG Export Plug-In . SVG Version: 6.00 Build 43363)  -->
<!DOCTYPE svg PUBLIC "-//W3C//DTD SVG 1.1//EN" "http://www.w3.org/Graphics/SVG/1.1/DTD/svg11.dtd">
<svg version="1.1" id="Layer_1" xmlns="http://www.w3.org/2000/svg" xmlns:xlink="http://www.w3.org/1999/xlink" x="0px" y="0px"
	 width="453.54px" height="255.12px" viewBox="0 0 453.54 255.12" enable-background="new 0 0 453.54 255.12" xml:space="preserve">
<polygon fill="#43A047" points="-433.577,107.286 -446.776,120.485 -404.35,162.912 -340.556,98.686 -353.755,85.486 
	-404.35,136.514 "/>
<g>
	<path fill="#43A047" d="M-460.424,203.684c15.318,11.91,34.002,19.701,54.389,21.689v-21.148
		c-14.604-1.787-28.051-7.303-39.379-15.551L-460.424,203.684z"/>
	<g>
		<path fill="#43A047" d="M-465.762,41.286l14.895,14.894c12.352-10.651,27.805-17.786,44.83-19.871V15.161
			C-428.856,17.388-449.542,26.877-465.762,41.286z"/>
		<path fill="#43A047" d="M-386.038,15.092v21.119c42.201,4.776,75,40.577,75,84.056c0,43.477-32.797,79.28-74.998,84.055v21.119
			c53.822-4.857,95.998-50.086,95.998-105.174C-290.038,65.18-332.216,19.951-386.038,15.092z"/>
		<path fill="#43A047" d="M-479.405,55.927c-12.736,16.554-20.678,36.987-21.738,59.226h21.043
			c0.981-16.445,6.662-31.615,15.714-44.207L-479.405,55.927z"/>
		<path fill="#43A047" d="M-500.225,135.152c2.941,20.848,11.971,39.736,25.23,54.816l14.906-14.904
			c-9.521-11.176-16.184-24.854-18.863-39.912H-500.225z"/>
	</g>
</g>
<polygon fill="#43A047" points="173.894,107.286 160.694,120.485 203.12,162.912 266.915,98.686 253.716,85.486 203.12,136.514 "/>
<path fill="#43A047" d="M211.88,14.652c-58.295,0-105.553,47.285-105.553,105.615c0,58.331,47.258,105.616,105.553,105.616
	s105.553-47.285,105.553-105.616C317.433,61.937,270.175,14.652,211.88,14.652z M211.88,204.779
	c-46.646,0-84.462-37.837-84.462-84.512s37.815-84.512,84.462-84.512s84.462,37.837,84.462,84.512S258.526,204.779,211.88,204.779z"
	/>
</svg>
