<svg width="24" height="24" viewBox="0 0 24 24" fill="none" xmlns="http://www.w3.org/2000/svg">
<path d="M20 1.50765e-05H4.00012C2.62496 -0.00471926 1.50629 1.10616 1.50151 2.48137C1.50109 2.59631 1.50868 2.71115 1.52415 2.82501C1.56011 3.0988 1.81121 3.2916 2.08501 3.25565C2.15143 3.24693 2.21541 3.22494 2.27316 3.19101C2.4938 3.06299 2.745 2.99704 3.00014 2.99999H5.5601C6.20266 3.00144 6.7736 3.41019 6.98209 4.01797L7.06708 4.29097C7.41081 5.30979 8.36485 5.99687 9.44006 5.99997H21C21.2622 6.0002 21.5197 6.06915 21.7469 6.19998C21.9851 6.33972 22.2915 6.25989 22.4312 6.02172C22.476 5.94536 22.4998 5.8585 22.4999 5.77V2.50003C22.5 1.11929 21.3807 1.50765e-05 20 1.50765e-05Z" fill="#1976D2"/>
<path d="M18.78 16.5628C18.7132 16.3564 18.5209 16.2167 18.304 16.2168H14.233L12.9751 12.3448C12.8588 12.0822 12.5517 11.9635 12.2891 12.0798C12.1709 12.1321 12.0764 12.2266 12.0241 12.3448L10.7661 16.2168H6.70013C6.42399 16.2201 6.20284 16.4466 6.20612 16.7227C6.20795 16.878 6.28187 17.0236 6.40614 17.1168L9.70611 19.5168L8.5221 23.3537C8.44139 23.6178 8.58998 23.8973 8.85407 23.9781C9.00458 24.0241 9.16799 23.9965 9.29511 23.9037L12.4951 21.5547L15.7001 23.8997C15.9231 24.0626 16.2359 24.0138 16.3987 23.7908C16.4915 23.6636 16.5191 23.5002 16.4731 23.3497L15.3001 19.5178L18.6001 17.1178C18.7729 16.9906 18.8454 16.7672 18.78 16.5628Z" fill="#FFC107"/>
<path d="M22.2529 5.3376C21.8725 5.11598 21.4401 4.99936 20.9999 4.99959H9.44001C8.79745 4.99814 8.22651 4.58939 8.01802 3.98161L7.93303 3.70862C7.5893 2.6898 6.63526 2.00271 5.56005 1.99961H3.00009C2.5702 1.99563 2.14711 2.10719 1.77511 2.32263C1.57927 2.43358 1.3996 2.57083 1.24112 2.73062C0.763651 3.19487 0.49609 3.83368 0.500074 4.49958V16.4995C0.500074 17.8802 1.61935 18.9995 3.00004 18.9995H7.28499L5.81299 17.9315C5.14249 17.4449 4.99343 16.5069 5.47999 15.8364C5.76339 15.4459 6.21742 15.2155 6.7 15.2175H10.04L11.0729 12.0365C11.3588 11.2484 12.2295 10.8413 13.0176 11.1272C13.4405 11.2806 13.7735 11.6136 13.9269 12.0365L14.9599 15.2175H18.2999C19.1283 15.218 19.7994 15.8901 19.7988 16.7185C19.7985 17.1986 19.5684 17.6495 19.1799 17.9315L17.7149 18.9995H20.9999C22.3805 18.9995 23.4998 17.8802 23.4998 16.4995V7.49956C23.5027 6.60725 23.0268 5.78198 22.2529 5.3376Z" fill="#2196F3"/>
</svg>
