<svg width="24" height="24" viewBox="0 0 24 24" fill="none" xmlns="http://www.w3.org/2000/svg">
<g clip-path="url(#clip0)">
<path d="M14.0619 9.93678C13.6709 9.54578 13.6709 8.91278 14.0619 8.52278L18.5229 4.06278C18.9139 3.67178 19.5459 3.67178 19.9369 4.06278C20.3279 4.45378 20.3279 5.08678 19.9369 5.47678L15.4759 9.93678C15.0859 10.3278 14.4529 10.3278 14.0619 9.93678Z" fill="#607D8B"/>
<path d="M19.937 4.06299L14.062 9.93699C14.257 10.132 14.513 10.23 14.769 10.23C15.025 10.23 15.281 10.132 15.476 9.93699L19.937 5.47699C20.328 5.08699 20.328 4.45399 19.937 4.06299Z" fill="#546D79"/>
<path d="M13.123 20.0038C12.756 19.5908 12.793 18.9598 13.205 18.5918L18.465 13.9118C18.877 13.5448 19.51 13.5808 19.877 13.9948C20.244 14.4078 20.207 15.0388 19.795 15.4068L14.535 20.0868C14.123 20.4538 13.49 20.4178 13.123 20.0038Z" fill="#607D8B"/>
<path d="M19.877 13.9956L13.123 20.0046C13.32 20.2276 13.595 20.3406 13.87 20.3406C14.107 20.3406 14.345 20.2566 14.535 20.0876L19.795 15.4076C20.207 15.0396 20.244 14.4076 19.877 13.9956Z" fill="#546D79"/>
<path d="M4.169 18.0641C3.824 17.6331 3.895 17.0031 4.325 16.6591L10.425 11.7791C10.858 11.4331 11.486 11.5041 11.831 11.9351C12.176 12.3661 12.105 12.9961 11.675 13.3401L5.575 18.2201C5.143 18.5661 4.514 18.4951 4.169 18.0641Z" fill="#607D8B"/>
<path d="M11.8309 11.936L4.16895 18.065C4.36695 18.312 4.65695 18.44 4.95095 18.44C5.16995 18.44 5.38995 18.368 5.57494 18.221L11.6749 13.341C12.1049 12.996 12.1759 12.367 11.8309 11.936Z" fill="#546D79"/>
<path d="M9.83905 19.3949L4.45805 10.6549C4.16905 10.1849 4.31505 9.56887 4.78505 9.27887C5.25405 8.98787 5.87205 9.13487 6.16105 9.60587L11.542 18.3459C11.831 18.8159 11.685 19.4319 11.215 19.7219C10.748 20.0099 10.13 19.8679 9.83905 19.3949Z" fill="#607D8B"/>
<path d="M4.78505 9.27783C4.31505 9.56783 4.16905 10.1838 4.45805 10.6538L9.83905 19.3938C10.028 19.7018 10.357 19.8698 10.691 19.8698C10.87 19.8698 11.052 19.8218 11.215 19.7208L4.78505 9.27783Z" fill="#546D79"/>
<path d="M3 22C1.346 22 0 20.654 0 19C0 17.346 1.346 16 3 16C4.654 16 6 17.346 6 19C6 20.654 4.654 22 3 22Z" fill="#21F3C0"/>
<path d="M13 14C11.346 14 9.99997 12.654 9.99997 11C9.99997 9.346 11.346 8 13 8C14.654 8 16 9.346 16 11C16 12.654 14.654 14 13 14Z" fill="#21F3C0"/>
<path d="M3.99997 11C2.34597 11 0.999969 9.654 0.999969 8C0.999969 6.346 2.34597 5 3.99997 5C5.65397 5 6.99997 6.346 6.99997 8C6.99997 9.654 5.65397 11 3.99997 11Z" fill="#21F3C0"/>
<path d="M21 16C19.346 16 18 14.654 18 13C18 11.346 19.346 10 21 10C22.654 10 24 11.346 24 13C24 14.654 22.654 16 21 16Z" fill="#21F3C0"/>
<path d="M21 10C19.346 10 18 11.346 18 13C18 14.654 19.346 16 21 16V10Z" fill="#19D28F"/>
<path d="M13 8C11.346 8 9.99997 9.346 9.99997 11C9.99997 12.654 11.346 14 13 14V8Z" fill="#19D28F"/>
<path d="M3.99994 5C2.34594 5 0.999939 6.346 0.999939 8C0.999939 9.654 2.34594 11 3.99994 11V5Z" fill="#19D28F"/>
<path d="M3 16C1.346 16 0 17.346 0 19C0 20.654 1.346 22 3 22V16Z" fill="#19D28F"/>
<path d="M12 24C10.346 24 9 22.654 9 21C9 19.346 10.346 18 12 18C13.654 18 15 19.346 15 21C15 22.654 13.654 24 12 24Z" fill="#21F3C0"/>
<path d="M21 6C19.346 6 18 4.654 18 3C18 1.346 19.346 0 21 0C22.654 0 24 1.346 24 3C24 4.654 22.654 6 21 6Z" fill="#21F3C0"/>
<path d="M21 0C19.346 0 18 1.346 18 3C18 4.654 19.346 6 21 6V0Z" fill="#19D28F"/>
<path d="M12 18C10.346 18 9 19.346 9 21C9 22.654 10.346 24 12 24V18Z" fill="#19D28F"/>
</g>
<defs>
<clipPath id="clip0">
<rect width="24" height="24" fill="white"/>
</clipPath>
</defs>
</svg>
