<?xml version="1.0"?>
<svg xmlns="http://www.w3.org/2000/svg" height="512px" viewBox="0 -26 512 511" width="512px" class=""><g transform="matrix(-1 0 0 1 512 0)"><path d="m497 126h-91.070312v-110.5c0-8.285156-6.714844-15-15-15h-375.929688c-8.285156 0-15 6.714844-15 15v259c0 8.285156 6.714844 15 15 15h50.5v59.5c0 6.066406 3.65625 11.535156 9.261719 13.859375 1.855469.769531 3.804687 1.140625 5.734375 1.140625 3.90625 0 7.742187-1.523438 10.609375-4.394531l70.109375-70.105469h42.785156v80.5c0 8.285156 6.714844 15 15 15h131.785156l70.109375 70.109375c2.867188 2.867187 6.703125 4.394531 10.609375 4.394531 1.929688 0 3.878906-.375 5.734375-1.144531 5.605469-2.320313 9.261719-7.792969 9.261719-13.859375v-59.5h50.5c8.285156 0 15-6.714844 15-15v-229c0-8.285156-6.714844-15-15-15zm-342 133.5c-3.976562 0-7.792969 1.582031-10.605469 4.394531l-48.894531 48.890625v-38.285156c0-8.285156-6.714844-15-15-15h-50.5v-229h345.929688v229zm327 95.5h-50.5c-8.285156 0-15 6.714844-15 15v38.285156l-48.894531-48.894531c-2.8125-2.8125-6.628907-4.394531-10.605469-4.394531h-123v-65.5h156.929688c8.285156 0 15-6.714844 15-15v-118.496094h76.070312zm0 0" data-original="#000000" class="active-path" data-old_color="#FFF7F7" fill="#FFFFFF"/><path d="m75 90.5h152.609375c8.285156 0 15-6.714844 15-15s-6.714844-15-15-15h-152.609375c-8.285156 0-15 6.714844-15 15s6.714844 15 15 15zm0 0" data-original="#000000" class="active-path" data-old_color="#FFF7F7" fill="#FFFFFF"/><path d="m331.046875 120.5h-256.046875c-8.285156 0-15 6.714844-15 15s6.714844 15 15 15h256.046875c8.285156 0 15-6.714844 15-15s-6.714844-15-15-15zm0 0" data-original="#000000" class="active-path" data-old_color="#FFF7F7" fill="#FFFFFF"/><path d="m275 180.5h-200c-8.285156 0-15 6.714844-15 15s6.714844 15 15 15h200c8.285156 0 15-6.714844 15-15s-6.714844-15-15-15zm0 0" data-original="#000000" class="active-path" data-old_color="#FFF7F7" fill="#FFFFFF"/></g> </svg>
