<?xml version="1.0" encoding="iso-8859-1"?>
<!-- Generator: Adobe Illustrator 21.0.0, SVG Export Plug-In . SVG Version: 6.00 Build 0)  -->
<svg xmlns="http://www.w3.org/2000/svg" xmlns:xlink="http://www.w3.org/1999/xlink" version="1.1" id="Capa_1" x="0px" y="0px" viewBox="0 0 512 512" style="enable-background:new 0 0 512 512;" xml:space="preserve" width="512" height="512">
<g>
	<path fill="#fff" d="M256,290.384l69.7,51.191L391,291.45V67.988H121V291.45l65.3,50.125L256,290.384z M234.672,156.319L256,177.647   l39.828-39.829l21.213,21.213L256,220.075l-42.541-42.543L234.672,156.319z"/>
	<polygon fill="#fff" points="0,236.284 0,478.448 161.12,360.066  "/>
	<polygon fill="#fff" points="91,128.033 0.226,198.47 91,268.282  "/>
	<polygon fill="#fff" points="421,128.033 421,268.425 511.955,198.61  "/>
	<polygon fill="#fff" points="256,0 207.045,37.987 304.955,37.987  "/>
	<polygon fill="#fff" points="300.92,360.596 256,327.605 211.08,360.596 185.9,379.096 5.124,512 507.104,512 326.1,379.096  "/>
	<polygon fill="#fff" points="350.88,360.066 512,478.376 512,236.615  "/>
</g>
</svg>
