<?xml version="1.0"?>
<svg xmlns="http://www.w3.org/2000/svg" viewBox="0 0 24 24" enable-background="new 0 0 24 24">
    <path fill="#FFF" style="text-indent:0;text-align:start;line-height:normal;text-transform:none;block-progression:tb;-inkscape-font-specification:Bitstream Vera Sans" d="M 12 2.3125 L 8.5 7 L 11 7 L 11 15 L 13 15 L 13 7 L 15.5 7 L 12 2.3125 z M 7.5625 3.09375 C 4.2444814 4.7527593 2 8.1190476 2 12 C 2 17.533333 6.4666667 22 12 22 C 17.533333 22 22 17.533333 22 12 C 22 8.1190476 19.795784 4.6609492 16.4375 3.09375 L 15.5625 4.90625 C 18.204216 6.1390508 20 8.8809524 20 12 C 20 16.466667 16.466667 20 12 20 C 7.5333333 20 4 16.466667 4 12 C 4 8.8809524 5.7555186 6.2472407 8.4375 4.90625 L 7.5625 3.09375 z" overflow="visible" enable-background="accumulate" font-family="Bitstream Vera Sans"/>
</svg>
