<svg width="438.53999999999996" height="438.53999999999996" xmlns="http://www.w3.org/2000/svg">

 <g>
  <title>background</title>
  <rect fill="none" id="canvas_background" height="402" width="582" y="-1" x="-1"/>
 </g>
 <g>
  <title>Layer 1</title>
  <path stroke-width="0" fill="#00b7c3" id="svg_2" d="m373.17,71.43c-12.68,-12.68 -27.96,-19.02 -45.82,-19.02l-216.17,0c-17.86,0 -33.14,6.35 -45.82,19.02c-12.68,12.68 -19.02,27.96 -19.02,45.82l0,216.16c0,17.86 6.35,33.14 19.02,45.82c12.68,12.68 27.96,19.03 45.82,19.03l216.16,0c17.86,0 33.14,-6.35 45.82,-19.03c12.68,-12.68 19.03,-27.96 19.03,-45.82l0,-216.15c0.01,-17.87 -6.34,-33.14 -19.02,-45.83zm-38.62,161.11c0,6.31 -2.93,10.73 -8.78,13.28c-1.95,0.75 -3.84,1.13 -5.63,1.13c-4.05,0 -7.43,-1.43 -10.13,-4.28l-32.42,-32.42l-120.24,120.25c-2.86,2.85 -6.23,4.28 -10.13,4.28c-3.9,0 -7.28,-1.43 -10.13,-4.28l-22.96,-22.97c-2.85,-2.85 -4.28,-6.23 -4.28,-10.13s1.43,-7.27 4.28,-10.13l120.24,-120.24l-32.42,-32.42c-4.66,-4.36 -5.71,-9.6 -3.15,-15.77c2.55,-5.85 6.98,-8.78 13.28,-8.78l108.08,0c3.9,0 7.28,1.43 10.13,4.28c2.85,2.85 4.28,6.23 4.28,10.13l-0.02,108.07l0,0z" class="st0"/>
 </g>
</svg>