<?xml version="1.0" encoding="utf-8"?>
<!-- Generator: Adobe Illustrator 23.0.2, SVG Export Plug-In . SVG Version: 6.00 Build 0)  -->
<svg version="1.1" id="Capa_1" xmlns="http://www.w3.org/2000/svg" xmlns:xlink="http://www.w3.org/1999/xlink" x="0px" y="0px"
	 viewBox="0 0 438.54 438.54" style="enable-background:new 0 0 438.54 438.54;" xml:space="preserve">
<style type="text/css">
	.st0{fill:#65676F;}
</style>
<g>
	<path class="st0" d="M373.17,71.43c-12.68-12.68-27.96-19.02-45.82-19.02H111.18c-17.86,0-33.14,6.35-45.82,19.02
		c-12.68,12.68-19.02,27.96-19.02,45.82v216.16c0,17.86,6.35,33.14,19.02,45.82c12.68,12.68,27.96,19.03,45.82,19.03h216.16
		c17.86,0,33.14-6.35,45.82-19.03c12.68-12.68,19.03-27.96,19.03-45.82V117.26C392.2,99.39,385.85,84.12,373.17,71.43z
		 M334.55,232.54c0,6.31-2.93,10.73-8.78,13.28c-1.95,0.75-3.84,1.13-5.63,1.13c-4.05,0-7.43-1.43-10.13-4.28l-32.42-32.42
		L157.35,330.5c-2.86,2.85-6.23,4.28-10.13,4.28c-3.9,0-7.28-1.43-10.13-4.28l-22.96-22.97c-2.85-2.85-4.28-6.23-4.28-10.13
		s1.43-7.27,4.28-10.13l120.24-120.24l-32.42-32.42c-4.66-4.36-5.71-9.6-3.15-15.77c2.55-5.85,6.98-8.78,13.28-8.78h108.08
		c3.9,0,7.28,1.43,10.13,4.28c2.85,2.85,4.28,6.23,4.28,10.13L334.55,232.54L334.55,232.54z"/>
</g>
</svg>
