<?xml version="1.0" encoding="utf-8"?>
<!-- Generator: Adobe Illustrator 14.0.0, SVG Export Plug-In . SVG Version: 6.00 Build 43363)  -->
<!DOCTYPE svg PUBLIC "-//W3C//DTD SVG 1.1//EN" "http://www.w3.org/Graphics/SVG/1.1/DTD/svg11.dtd">
<svg version="1.1" id="Capa_1" xmlns="http://www.w3.org/2000/svg" xmlns:xlink="http://www.w3.org/1999/xlink" x="0px" y="0px"
	 width="612px" height="792px" viewBox="0 0 612 792" enable-background="new 0 0 612 792" xml:space="preserve">
<g>
	<path fill="#65676F" d="M306,217.245c-125.501,0-233.683,73.978-283.364,180.765c-1.535,3.237-1.535,7.02,0,10.313
		C72.317,515.096,180.499,589.087,306,589.087s233.684-73.978,283.364-180.765c1.535-3.237,1.535-7.02,0-10.313
		C539.684,291.237,431.501,217.245,306,217.245z M306,531.451c-70.866,0-128.25-57.44-128.25-128.25
		c0-70.866,57.44-128.25,128.25-128.25c70.865,0,128.25,57.44,128.25,128.25C434.25,474.011,376.81,531.451,306,531.451z"/>
	<circle fill="#65676F" cx="306" cy="403.117" r="82.1"/>
</g>
</svg>
