<?xml version="1.0" encoding="utf-8"?>
<!-- Generator: Adobe Illustrator 23.0.2, SVG Export Plug-In . SVG Version: 6.00 Build 0)  -->
<svg version="1.1" id="Layer_1" xmlns="http://www.w3.org/2000/svg" xmlns:xlink="http://www.w3.org/1999/xlink" x="0px" y="0px"
	 viewBox="0 0 23.85 19.98" style="enable-background:new 0 0 23.85 19.98;" xml:space="preserve">
<style type="text/css">
	.st0{fill:#C4C4C4;}
</style>
<g>
	<path class="st0" d="M16.49,5.26c-4.06,0-7.36,3.3-7.36,7.36s3.3,7.36,7.36,7.36s7.36-3.3,7.36-7.36S20.55,5.26,16.49,5.26z
		 M19.6,14.76c0.05,0.06,0.05,0.14,0,0.19l-0.79,0.79c-0.02,0.03-0.06,0.04-0.09,0.04c-0.03,0-0.07-0.02-0.09-0.04l-2.14-2.14
		l-2.14,2.14c-0.02,0.03-0.06,0.04-0.09,0.04c-0.03,0-0.07-0.02-0.09-0.04l-0.79-0.79c-0.05-0.06-0.05-0.14,0-0.19l2.14-2.14
		l-2.14-2.14c-0.05-0.06-0.05-0.14,0-0.19l0.79-0.79c0.05-0.05,0.14-0.05,0.19,0l2.14,2.14l2.14-2.14c0.02-0.03,0.06-0.04,0.09-0.04
		c0.03,0,0.07,0.02,0.09,0.04l0.79,0.79c0.05,0.06,0.05,0.14,0,0.19l-2.14,2.14L19.6,14.76z"/>
	<path class="st0" d="M8.09,10.33H4.74v1.63h3.07C7.85,11.4,7.95,10.86,8.09,10.33z"/>
	<path class="st0" d="M7.82,13.43H3.95V8.71h4.74c1.44-2.85,4.39-4.81,7.8-4.81c0-0.25,0-0.5,0-0.74c0-0.37-0.3-0.67-0.67-0.67
		c-0.67,0-1.35,0-2.02,0c0-0.61,0-1.21,0-1.82C13.8,0.3,13.5,0,13.13,0C9.87,0,6.62,0,3.36,0C2.99,0,2.69,0.3,2.69,0.67
		c0,0.61,0,1.21,0,1.82c-0.67,0-1.35,0-2.02,0C0.3,2.49,0,2.79,0,3.16c0,2.2,0,4.4,0,6.6c0,0.37,0.3,0.67,0.67,0.67
		c0.67,0,1.35,0,2.02,0c0,0.8,0,1.59,0,2.39c0,0.39,0,0.78,0,1.16c0,0.22,0.05,0.39,0.22,0.55c0.08,0.07,0.17,0.12,0.27,0.15
		s0.19,0.03,0.29,0.03c1.33,0,3.13,0,4.57,0C7.93,14.28,7.86,13.86,7.82,13.43z M3.95,1.73c0-0.37,0.3-0.67,0.67-0.67
		c2.81,0,4.42,0,7.22,0c0.37,0,0.67,0.3,0.67,0.67c0,0.38,0,0.36,0,0.75c-3.26,0-5.32,0-8.57,0C3.95,2.09,3.95,2.11,3.95,1.73z
		 M1.67,4.85c-0.33,0-0.59-0.26-0.59-0.59c0-0.33,0.26-0.59,0.59-0.59s0.59,0.26,0.59,0.59C2.26,4.58,2,4.85,1.67,4.85z"/>
</g>
</svg>
