<?xml version="1.0" encoding="utf-8"?>
<!-- Generator: Adobe Illustrator 23.0.2, SVG Export Plug-In . SVG Version: 6.00 Build 0)  -->
<svg version="1.1" id="Layer_1" xmlns="http://www.w3.org/2000/svg" xmlns:xlink="http://www.w3.org/1999/xlink" x="0px" y="0px"
	 viewBox="0 0 16.67 20" style="enable-background:new 0 0 16.67 20;" xml:space="preserve">
<style type="text/css">
	.st0{fill:#C4C4C4;}
</style>
<g>
	<path class="st0" d="M5.42,10.6c-0.37,0-0.68,0.3-0.68,0.68c0,0.37,0.3,0.68,0.68,0.68c0.37,0,0.68-0.3,0.68-0.68
		C6.1,10.9,5.8,10.6,5.42,10.6z"/>
	<path class="st0" d="M14.14,7.08c-0.12-0.3-0.27-0.54-0.45-0.71l-2.92-2.92C10.6,3.27,10.36,3.12,10.06,3
		c-0.3-0.13-0.58-0.2-0.83-0.2h-6c-0.25,0-0.47,0.09-0.64,0.26C2.42,3.24,2.34,3.45,2.34,3.7v12.6c0,0.25,0.09,0.46,0.26,0.64
		c0.17,0.17,0.39,0.26,0.64,0.26h10.2c0.25,0,0.46-0.09,0.64-0.26c0.17-0.17,0.26-0.39,0.26-0.64V7.9
		C14.33,7.65,14.27,7.37,14.14,7.08z M4.85,3.79h1.14v1.14H4.85V3.79z M4.85,5.55h1.14v1.14H4.85V5.55z M4.85,7.31h1.14v1.14H4.85
		V7.31z M5.42,12.96c-0.93,0-1.68-0.76-1.68-1.68c0-0.73,0.46-1.35,1.11-1.58V9.01h1.14v0.68c0.65,0.23,1.11,0.86,1.11,1.58
		C7.11,12.21,6.35,12.96,5.42,12.96z M9.04,8.09V3.64C9.27,3.72,9.43,3.8,9.53,3.9l3.71,3.71c0.09,0.09,0.18,0.26,0.26,0.48H9.04z"
		/>
</g>
</svg>
