<?xml version="1.0" encoding="utf-8"?>
<!-- Generator: Adobe Illustrator 23.0.2, SVG Export Plug-In . SVG Version: 6.00 Build 0)  -->
<svg version="1.1" id="Layer_1" xmlns="http://www.w3.org/2000/svg" xmlns:xlink="http://www.w3.org/1999/xlink" x="0px" y="0px"
	 viewBox="0 0 16.67 20" style="enable-background:new 0 0 16.67 20;" xml:space="preserve">
<style type="text/css">
	.st0{fill:#00B7C3;}
	.st1{fill:#FFFFFF;}
</style>
<g>
	<g>
		<g>
			<path class="st0" d="M13.43,7.44c-0.11-0.27-0.24-0.47-0.39-0.62l-2.56-2.56c-0.15-0.15-0.36-0.28-0.62-0.39
				c-0.27-0.11-0.5-0.17-0.73-0.17H3.86c-0.22,0-0.41,0.08-0.56,0.23C3.15,4.07,3.07,4.26,3.07,4.48v11.05
				c0,0.22,0.08,0.4,0.23,0.56c0.15,0.15,0.34,0.23,0.56,0.23h8.94c0.22,0,0.4-0.08,0.56-0.23c0.15-0.15,0.23-0.34,0.23-0.56V8.16
				C13.59,7.94,13.54,7.7,13.43,7.44z"/>
		</g>
		<rect x="5.28" y="4.55" class="st1" width="1" height="1"/>
		<rect x="5.28" y="6.1" class="st1" width="1" height="1"/>
		<rect x="5.28" y="7.65" class="st1" width="1" height="1"/>
		<path class="st1" d="M5.78,12.59c-0.81,0-1.48-0.66-1.48-1.48c0-0.64,0.4-1.18,0.97-1.39v-0.6h1v0.6c0.57,0.2,0.97,0.75,0.97,1.39
			C7.26,11.94,6.6,12.59,5.78,12.59z"/>
		<path class="st0" d="M5.78,10.52c-0.33,0-0.6,0.27-0.6,0.6c0,0.33,0.27,0.6,0.6,0.6c0.33,0,0.6-0.27,0.6-0.6
			S6.11,10.52,5.78,10.52z"/>
	</g>
	<path class="st1" d="M8.96,8.33V4.42c0.2,0.07,0.34,0.15,0.42,0.23l3.25,3.25c0.08,0.08,0.16,0.23,0.23,0.42L8.96,8.33L8.96,8.33z"
		/>
</g>
</svg>
