<?xml version="1.0" encoding="utf-8"?>
<!-- Generator: Adobe Illustrator 16.0.0, SVG Export Plug-In . SVG Version: 6.00 Build 0)  -->
<!DOCTYPE svg PUBLIC "-//W3C//DTD SVG 1.1//EN" "http://www.w3.org/Graphics/SVG/1.1/DTD/svg11.dtd">
<svg version="1.1" id="Capa_1" xmlns="http://www.w3.org/2000/svg" xmlns:xlink="http://www.w3.org/1999/xlink" x="0px" y="0px"
	 width="1152px" height="648px" viewBox="0 0 1152 648" enable-background="new 0 0 1152 648" xml:space="preserve">
<path stroke="#ffffff" fill="#FFFFFF" stroke-width="26" stroke-miterlimit="10" d="M867.384,124.2H554.616V70.416
	c0-17.982-14.623-32.616-32.616-32.616H284.616C266.623,37.8,252,52.423,252,70.416V221.4V243v334.584
	c0,17.982,14.623,32.616,32.616,32.616h582.768c17.982,0,32.616-14.623,32.616-32.616V243v-21.6v-64.584
	C900,138.823,885.377,124.2,867.384,124.2z M878.4,577.584c0,6.08-4.936,11.016-11.017,11.016H284.616
	c-6.081,0-11.016-4.936-11.016-11.016V270h604.8V577.584z M273.6,248.4V70.416c0-6.081,4.936-11.016,11.016-11.016H522
	c6.069,0,11.016,4.936,11.016,11.016V145.8h334.368c6.081,0,11.017,4.936,11.017,11.016V248.4H273.6z"/>
</svg>
