<svg width="24" height="24" viewBox="0 0 24 24" fill="none" xmlns="http://www.w3.org/2000/svg">
<g clip-path="url(#clip0)">
<path d="M20.4999 2.5H3.49996C2.12258 2.49775 1.00415 3.61253 1.0019 4.98996C1.00171 5.10203 1.00907 5.21397 1.02397 5.32502C1.05941 5.59886 1.31015 5.79213 1.58404 5.75669C1.65074 5.74807 1.71501 5.72608 1.77299 5.692C1.99358 5.56366 2.24479 5.49733 2.49997 5.5H6.05999C6.70246 5.50178 7.27326 5.91039 7.48199 6.51799L7.56697 6.79197C7.91104 7.81043 8.86499 8.49705 9.93997 8.49996H21.5C21.7622 8.50019 22.0197 8.56914 22.247 8.69997C22.3237 8.74474 22.4111 8.76818 22.4999 8.76799C22.7761 8.76799 23 8.54411 23 8.26797V4.99999C23 3.61928 21.8807 2.5 20.4999 2.5Z" fill="#858585"/>
<path d="M22.753 7.83808C22.3726 7.61641 21.9402 7.49978 21.5 7.50007H9.93999C9.29752 7.49828 8.72672 7.08968 8.51798 6.48208L8.433 6.2081C8.08894 5.18964 7.13498 4.50302 6.06 4.50011H2.49998C2.07038 4.49594 1.64761 4.6075 1.27598 4.82313C0.487875 5.26418 -0.000234291 6.09691 8.43668e-08 7.0001V19.0001C8.43668e-08 20.3808 1.11928 21.5001 2.49998 21.5001H21.5C22.8807 21.5001 24 20.3808 24 19.0001V10.0001C24.003 9.10769 23.527 8.28232 22.753 7.83808Z" fill="#C4C4C4"/>
</g>
<defs>
<clipPath id="clip0">
<rect width="24" height="24" fill="white"/>
</clipPath>
</defs>
</svg>
