<svg width="24" height="24" viewBox="0 0 24 24" fill="none" xmlns="http://www.w3.org/2000/svg">
<path d="M20.5388 12.8044H18.1026C16.1939 12.8044 14.6307 14.3609 14.6307 16.2696V20.0904C14.6307 21.2356 15.5728 22.1737 16.718 22.1737H21.9234C23.0687 22.1737 24 21.2356 24 20.0904V16.2696C24 14.3608 22.4475 12.8044 20.5388 12.8044Z" fill="#FF504A"/>
<path d="M19.3207 12.8042H18.1026C16.1939 12.8042 14.6307 14.3606 14.6307 16.2693V20.0901C14.6307 21.2353 15.5728 22.1734 16.718 22.1734H19.3207V12.8042Z" fill="#FF7959"/>
<path d="M19.3207 5.70654C17.604 5.70654 16.2074 7.10318 16.2074 8.81984C16.2074 10.5365 17.604 11.9332 19.3207 11.9332C21.0374 11.9332 22.434 10.5365 22.434 8.81984C22.434 7.10323 21.0374 5.70654 19.3207 5.70654Z" fill="#FF504A"/>
<path d="M19.3207 5.70654C17.604 5.70654 16.2074 7.10318 16.2074 8.81984C16.2074 10.5365 17.604 11.9332 19.3207 11.9332V5.70654Z" fill="#FF7959"/>
<path d="M5.90803 12.8044H3.47189C1.56319 12.8044 0 14.3608 0 16.2695V20.0903C0 21.2355 0.942047 22.1736 2.0873 22.1736H7.29267C8.43792 22.1736 9.36923 21.2355 9.36923 20.0903V16.2695C9.36923 14.3608 7.81678 12.8044 5.90803 12.8044Z" fill="#2FD163"/>
<path d="M4.68998 12.8042H3.47189C1.56319 12.8042 0 14.3606 0 16.2693V20.0901C0 21.2353 0.942047 22.1734 2.0873 22.1734H4.68998C4.68998 22.1735 4.68998 12.8042 4.68998 12.8042Z" fill="#7EFF76"/>
<path d="M14.1197 11.0046H9.88011C7.97141 11.0046 6.41858 12.5575 6.41858 14.4662V21.475C6.41858 21.8573 6.72856 22.1673 7.11088 22.1673H16.8889C17.2713 22.1673 17.5812 21.8573 17.5812 21.475V14.4662C17.5812 12.5575 16.0284 11.0046 14.1197 11.0046Z" fill="#3594C7"/>
<path d="M12.0233 11.0046H9.88011C7.97141 11.0046 6.41858 12.5575 6.41858 14.4662V21.475C6.41858 21.8573 6.72856 22.1673 7.11088 22.1673H12.0233V11.0046Z" fill="#16DCFA"/>
<path d="M12 1.82617C9.70454 1.82617 7.83704 3.69367 7.83704 5.98914C7.83704 8.28461 9.70449 10.1521 12 10.1521C14.2955 10.1521 16.163 8.28461 16.163 5.98914C16.163 3.69367 14.2955 1.82617 12 1.82617Z" fill="#3594C7"/>
<path d="M12 1.82617C9.70454 1.82617 7.83704 3.69367 7.83704 5.98914C7.83704 8.28461 9.70449 10.1521 12 10.1521V1.82617Z" fill="#16DCFA"/>
<path d="M4.68996 5.70654C2.97325 5.70654 1.57666 7.10318 1.57666 8.81984C1.57666 10.5365 2.97325 11.9332 4.68996 11.9332C6.40666 11.9332 7.80325 10.5365 7.80325 8.81984C7.80325 7.10323 6.40666 5.70654 4.68996 5.70654Z" fill="#2FD163"/>
<path d="M4.68996 5.70654C2.97325 5.70654 1.57666 7.10318 1.57666 8.81984C1.57666 10.5365 2.97325 11.9332 4.68996 11.9332V5.70654Z" fill="#7EFF76"/>
</svg>
