<?xml version="1.0" encoding="utf-8"?>
<!-- Generator: Adobe Illustrator 23.0.2, SVG Export Plug-In . SVG Version: 6.00 Build 0)  -->
<svg version="1.1" id="Layer_1" xmlns="http://www.w3.org/2000/svg" xmlns:xlink="http://www.w3.org/1999/xlink" x="0px" y="0px"
	 viewBox="0 0 21.82 16" style="enable-background:new 0 0 21.82 16;" xml:space="preserve">
<style type="text/css">
	.st0{fill-rule:evenodd;clip-rule:evenodd;fill:#00B7C3;}
</style>
<g>
	<path class="st0" d="M2.05,5.58v1.09c0,1.47,1.53,2.18,2.04,2.18c0.55,0,2.04-0.71,2.04-2.18V5.58c0-1.47-1.08-2.18-2.04-2.18
		C3.16,3.4,2.05,4.11,2.05,5.58z"/>
	<path class="st0" d="M7.51,3.51v0.64c0,2.05,1.49,4.04,3.4,4.04s3.4-1.98,3.4-4.04V3.51c0-2.06-1.49-3.51-3.4-3.51
		S7.51,1.45,7.51,3.51z"/>
	<path class="st0" d="M15.69,5.58v1.09c0,1.47,1.53,2.18,2.04,2.18c0.55,0,2.04-0.71,2.04-2.18V5.58c0-1.47-1.08-2.18-2.04-2.18
		C16.8,3.4,15.69,4.11,15.69,5.58z"/>
	<path class="st0" d="M21.82,12.95c0-0.75-0.28-1.9-1.55-2.62c-0.53-0.3-1.14-0.06-1.86,0.58l-0.68,0.68c0,0.9,0,2.64,0,3.46
		c1.55-0.44,2.93-1.03,4.09-1.72C21.82,13.12,21.82,12.96,21.82,12.95z"/>
	<path class="st0" d="M4.09,15.2c0-0.65,0-2.22,0-3.23c0,0,0-0.12,0-0.37l-0.68-0.69c-0.72-0.64-1.33-0.88-1.86-0.58
		C0.28,11.05,0,12.2,0,12.95c0,0.01,0,0.36,0,0.68C1.18,14.27,2.56,14.8,4.09,15.2z"/>
	<path class="st0" d="M16.3,15.41c0.04-0.17,0.06-0.37,0.06-0.6c0-0.01,0-2.79,0-2.81c0-0.14-0.01-0.28-0.02-0.42
		c0-0.01,0-0.02-0.01-0.03c-0.02-0.13-0.04-0.25-0.07-0.38l0,0c-0.07-0.26-0.19-0.51-0.37-0.76l0,0c-0.3-0.41-0.74-0.83-1.46-1.23
		c-0.38-0.21-0.55-0.31-0.79-0.31c-0.38,0-0.7,0.29-1.26,0.8l0,0l-0.5,0.46c-0.02,0.02-0.56,0.78-0.97,0.78s-0.95-0.77-0.97-0.78
		l-0.5-0.46l0,0c-0.55-0.51-0.88-0.8-1.26-0.8c-0.24,0-0.45,0.1-0.79,0.31C6.69,9.62,6.22,10,5.93,10.41l0,0l0,0
		c-0.18,0.25-0.3,0.5-0.37,0.76c0,0,0,0,0,0.01c-0.03,0.12-0.06,0.25-0.07,0.37c0,0.01,0,0.02-0.01,0.03
		C5.46,11.72,5.45,11.86,5.45,12c0,0.02,0,2.79,0,2.81c0,0.29,0.03,0.53,0.11,0.72c1.59,0.3,3.3,0.47,5.08,0.47
		C12.65,16,14.56,15.79,16.3,15.41z"/>
</g>
</svg>
