<?xml version="1.0"?>
<svg xmlns="http://www.w3.org/2000/svg" viewBox="0 0 16 16">
    <path fill="#fff" style="line-height:normal;text-indent:0;text-align:start;text-decoration-line:none;text-decoration-style:solid;text-decoration-color:#000;text-transform:none;block-progression:tb;isolation:auto;mix-blend-mode:normal" d="M 1.5 1 C 0.6774686 1 0 1.6774686 0 2.5 L 0 10.5 C 0 11.322531 0.6774686 12 1.5 12 L 2 12 L 2 12.5 C 2 13.322531 2.6774686 14 3.5 14 L 13.5 14 C 14.322531 14 15 13.322531 15 12.5 L 15 4.5 C 15 3.6774686 14.322531 3 13.5 3 L 13 3 L 13 2.5 C 13 1.6774686 12.322531 1 11.5 1 L 1.5 1 z M 1.5 2 L 11.5 2 C 11.781469 2 12 2.2185314 12 2.5 L 12 3 L 3.5 3 C 2.6774686 3 2 3.6774686 2 4.5 L 2 11 L 1.5 11 C 1.2185314 11 1 10.781469 1 10.5 L 1 2.5 C 1 2.2185314 1.2185314 2 1.5 2 z M 3.5 4 L 13.5 4 C 13.539674 4 13.574591 4.0132366 13.611328 4.0214844 L 8.5 7.8730469 L 3.3886719 4.0214844 C 3.4254093 4.0132366 3.460326 4 3.5 4 z M 3 4.9804688 L 8.5 9.1269531 L 14 4.9804688 L 14 12.5 C 14 12.781469 13.781469 13 13.5 13 L 3.5 13 C 3.2185314 13 3 12.781469 3 12.5 L 3 4.9804688 z" font-weight="400" font-family="sans-serif" white-space="normal" overflow="visible"/>
</svg>
