<?xml version="1.0" encoding="utf-8"?>
<!-- Generator: Adobe Illustrator 14.0.0, SVG Export Plug-In . SVG Version: 6.00 Build 43363)  -->
<!DOCTYPE svg PUBLIC "-//W3C//DTD SVG 1.1//EN" "http://www.w3.org/Graphics/SVG/1.1/DTD/svg11.dtd">
<svg version="1.1" id="Capa_1" xmlns="http://www.w3.org/2000/svg" xmlns:xlink="http://www.w3.org/1999/xlink" x="0px" y="0px"
	 width="612px" height="792px" viewBox="0 0 612 792" enable-background="new 0 0 612 792" xml:space="preserve">
<g>
	<g>
		<path fill="#65676F" stroke="#65676F" stroke-width="19" d="M318.592,170.816c-88.194,0-166.308,47.045-206.627,118.852
			l-57.956-56.949v160.946h163.79l-70.556-69.331c32.758-61.902,95.754-103.996,171.349-103.996
			c103.314,0,188.988,84.188,188.988,185.706c0,101.519-85.674,185.706-188.988,185.706c-83.153,0-151.189-51.998-178.907-123.804
			H86.767c27.718,99.043,120.951,173.326,231.825,173.326c133.553,0,239.386-106.473,239.386-235.229
			S449.623,170.816,318.592,170.816z"/>
	</g>
	<polygon fill="#65676F" stroke="#65676F" stroke-width="9" points="280.794,294.62 280.794,420.899 399.228,490.232 
		419.388,458.042 318.592,398.617 318.592,294.62 	"/>
</g>
</svg>
