<?xml version="1.0" encoding="utf-8"?>
<!-- Generator: Adobe Illustrator 14.0.0, SVG Export Plug-In . SVG Version: 6.00 Build 43363)  -->
<!DOCTYPE svg PUBLIC "-//W3C//DTD SVG 1.1//EN" "http://www.w3.org/Graphics/SVG/1.1/DTD/svg11.dtd">
<svg version="1.1" id="Capa_1" xmlns="http://www.w3.org/2000/svg" xmlns:xlink="http://www.w3.org/1999/xlink" x="0px" y="0px"
	 width="612px" height="792px" viewBox="0 0 612 792" enable-background="new 0 0 612 792" xml:space="preserve">
<path fill="#65676F" d="M515.367,186.638c-17.243-17.243-38.035-25.872-62.324-25.872H158.961c-24.29,0-45.083,8.63-62.324,25.872
	c-17.242,17.241-25.872,38.034-25.872,62.323v294.047c0,24.285,8.63,45.081,25.872,62.322
	c17.241,17.241,38.034,25.892,62.324,25.892h294.047c24.285,0,45.081-8.63,62.324-25.892c17.239-17.241,25.89-38.037,25.89-62.322
	V248.961C541.257,224.671,532.608,203.896,515.367,186.638z M442.27,530.493c-33.85,33.505-79.021,51.956-127.194,51.956
	c-80.862,0-152.289-53.434-173.7-129.939l-2.433-8.693h51.869l1.691,4.382c19.899,51.55,68.011,84.859,122.573,84.859
	c70.131,0,129.379-58.165,129.379-127.014S385.206,279.03,315.075,279.03c-48.239,0-90.867,24.896-115.007,66.873l59.092,58.066
	H117.509V264.777l47.208,46.388c31.935-50.509,88.733-81.528,150.358-81.528c47.487,0,92.41,18.445,126.496,51.938
	c34.117,33.525,52.906,77.728,52.906,124.467C494.478,452.973,475.937,497.169,442.27,530.493z M392.248,442.423l-17.971,28.696
	l-89.692-52.508v-96.128h33.733v76.354L392.248,442.423z"/>
</svg>
