<?xml version="1.0" encoding="utf-8"?>
<!-- Generator: Adobe Illustrator 14.0.0, SVG Export Plug-In . SVG Version: 6.00 Build 43363)  -->
<!DOCTYPE svg PUBLIC "-//W3C//DTD SVG 1.1//EN" "http://www.w3.org/Graphics/SVG/1.1/DTD/svg11.dtd">
<svg version="1.1" id="Capa_1" xmlns="http://www.w3.org/2000/svg" xmlns:xlink="http://www.w3.org/1999/xlink" x="0px" y="0px"
	 width="512px" height="512px" viewBox="0 0 512 512" enable-background="new 0 0 512 512" xml:space="preserve">
<path fill="#00b7c3" d="M255.936,0c-17.089,0-33.727,1.809-49.91,4.998l7.69,38.607c13.663-2.717,27.768-4.23,42.22-4.23
	c7.489,0,14.855,0.416,22.148,1.154c6.807,0.711,13.466,1.762,20.071,3.076v-0.078c99.521,19.593,174.34,107.031,174.34,212.407
	s-74.819,192.816-174.34,212.406v-0.075c-6.704,1.333-13.468,2.365-20.379,3.076c-7.194,0.719-14.455,1.154-21.841,1.154
	c-14.49,0-28.441-1.821-42.144-4.539l-7.689,38.529c16.182,3.228,32.706,5.384,49.833,5.384
	c141.123,0,255.935-114.812,255.935-255.936C511.87,114.81,397.059,0,255.936,0z M113.817,43.22
	C85.94,61.922,62.23,86.134,43.527,113.971l32.685,21.841c15.829-23.586,35.861-44.003,59.446-59.832L113.817,43.22z
	 M358.909,164.574L249.244,296.156l-63.521-59.525l-26.917,28.763l93.977,88.055l136.425-163.652L358.909,164.574z M5.384,206.102
	C2.155,222.284,0,238.808,0,255.935c0,17.089,1.809,33.728,4.998,49.911l38.607-7.69c-2.717-13.664-4.23-27.77-4.23-42.221
	c0-14.489,1.821-28.44,4.538-42.144L5.384,206.102z M75.981,376.212L43.22,398.053c18.703,27.876,42.914,51.585,70.751,70.288
	l21.84-32.683C112.227,419.83,91.809,399.798,75.981,376.212z"/>
</svg>
