<?xml version="1.0" encoding="utf-8"?>
<!-- Generator: Adobe Illustrator 14.0.0, SVG Export Plug-In . SVG Version: 6.00 Build 43363)  -->
<!DOCTYPE svg PUBLIC "-//W3C//DTD SVG 1.1//EN" "http://www.w3.org/Graphics/SVG/1.1/DTD/svg11.dtd">
<svg version="1.1" id="Capa_1" xmlns="http://www.w3.org/2000/svg" xmlns:xlink="http://www.w3.org/1999/xlink" x="0px" y="0px"
	 width="612px" height="792px" viewBox="0 0 612 792" enable-background="new 0 0 612 792" xml:space="preserve">
<g>
	<g>
		<path fill="#65676F" d="M517.149,272.019c-21.91-37.534-51.628-67.253-89.164-89.161C390.444,160.951,349.46,150,305.007,150
			c-44.45,0-85.445,10.951-122.98,32.858c-37.538,21.904-67.256,51.623-89.166,89.161C70.951,309.56,60,350.554,60,395
			c0,44.45,10.955,85.437,32.858,122.979c21.908,37.534,51.626,67.253,89.164,89.163c37.54,21.905,78.532,32.858,122.98,32.858
			c44.448,0,85.445-10.953,122.982-32.858c37.535-21.902,67.253-51.629,89.16-89.163c21.903-37.538,32.854-78.533,32.854-122.979
			C550,350.549,539.049,309.554,517.149,272.019z M264.172,211.246c0-2.979,0.955-5.423,2.872-7.335
			c1.913-1.912,4.361-2.872,7.337-2.872h61.253c2.976,0,5.423,0.96,7.332,2.872c1.91,1.913,2.874,4.356,2.874,7.335v51.043
			c0,2.976-0.964,5.423-2.874,7.334c-1.909,1.913-4.355,2.87-7.332,2.87h-61.253c-2.977,0-5.423-0.957-7.337-2.87
			c-1.917-1.909-2.872-4.358-2.872-7.334V211.246z M386.671,548.126c0,2.975-0.964,5.423-2.871,7.331
			c-1.904,1.914-4.353,2.871-7.334,2.871H233.545c-2.98,0-5.423-0.957-7.337-2.871c-1.913-1.908-2.87-4.354-2.87-7.334v-51.044
			c0-2.983,0.957-5.423,2.87-7.337c1.914-1.909,4.361-2.873,7.337-2.873h30.627V384.79h-30.627c-2.98,0-5.422-0.955-7.337-2.869
			c-1.913-1.912-2.87-4.359-2.87-7.337v-51.041c0-2.979,0.957-5.422,2.87-7.338c1.917-1.914,4.363-2.869,7.337-2.869h102.09
			c2.976,0,5.423,0.955,7.332,2.869c1.91,1.916,2.874,4.359,2.874,7.338v163.335h30.617c2.981,0,5.43,0.956,7.342,2.867
			c1.902,1.913,2.866,4.358,2.866,7.338v51.044L386.671,548.126L386.671,548.126z"/>
	</g>
</g>
</svg>
