<?xml version="1.0" encoding="utf-8"?>
<!-- Generator: Adobe Illustrator 23.0.2, SVG Export Plug-In . SVG Version: 6.00 Build 0)  -->
<svg version="1.1" id="Layer_1" xmlns="http://www.w3.org/2000/svg" xmlns:xlink="http://www.w3.org/1999/xlink" x="0px" y="0px"
	 viewBox="0 0 23.85 19.98" style="enable-background:new 0 0 23.85 19.98;" xml:space="preserve">
<style type="text/css">
	.st0{fill:#C4C4C4;}
</style>
<g>
	<g>
		<path class="st0" d="M8.09,10.33H4.74v1.63h3.07C7.85,11.4,7.95,10.86,8.09,10.33z"/>
		<path class="st0" d="M7.82,13.43H3.95V8.71h4.74c1.44-2.85,4.39-4.81,7.8-4.81c0-0.25,0-0.5,0-0.74c0-0.37-0.3-0.67-0.67-0.67
			c-0.67,0-1.35,0-2.02,0c0-0.61,0-1.21,0-1.82C13.8,0.3,13.5,0,13.13,0C9.87,0,6.62,0,3.36,0C2.99,0,2.69,0.3,2.69,0.67
			c0,0.61,0,1.21,0,1.82c-0.67,0-1.35,0-2.02,0C0.3,2.49,0,2.79,0,3.16c0,2.2,0,4.4,0,6.6c0,0.37,0.3,0.67,0.67,0.67
			c0.67,0,1.35,0,2.02,0c0,0.8,0,1.59,0,2.39c0,0.39,0,0.78,0,1.16c0,0.22,0.05,0.39,0.22,0.55c0.08,0.07,0.17,0.12,0.27,0.15
			s0.19,0.03,0.29,0.03c1.33,0,3.13,0,4.57,0C7.93,14.28,7.86,13.86,7.82,13.43z M3.95,1.73c0-0.37,0.3-0.67,0.67-0.67
			c2.81,0,4.42,0,7.22,0c0.37,0,0.67,0.3,0.67,0.67c0,0.38,0,0.36,0,0.75c-3.26,0-5.32,0-8.57,0C3.95,2.09,3.95,2.11,3.95,1.73z
			 M1.67,4.85c-0.33,0-0.59-0.26-0.59-0.59c0-0.33,0.26-0.59,0.59-0.59s0.59,0.26,0.59,0.59C2.26,4.58,2,4.85,1.67,4.85z"/>
	</g>
</g>
<path class="st0" d="M16.49,5.26c-4.06,0-7.36,3.3-7.36,7.36s3.3,7.36,7.36,7.36s7.36-3.3,7.36-7.36S20.55,5.26,16.49,5.26z
	 M14.33,14.82c-0.21,0.16-0.51,0.11-0.67-0.09c-0.4-0.5-0.67-1.11-0.74-1.78c-0.05-0.49-0.01-0.96,0.12-1.4
	c0.42-1.45,1.76-2.52,3.35-2.54V8.06c0-0.05,0.06-0.08,0.11-0.05l1.95,1.44c0.03,0.02,0.03,0.07,0,0.1l-1.95,1.44
	c-0.04,0.03-0.11,0-0.11-0.05V9.99c-1.04,0.02-1.93,0.66-2.31,1.57c-0.14,0.34-0.22,0.72-0.2,1.12c0.03,0.55,0.23,1.05,0.56,1.46
	C14.6,14.34,14.56,14.65,14.33,14.82z M19.95,13.69c-0.43,1.45-1.76,2.52-3.35,2.54v0.95c0,0.05-0.07,0.08-0.11,0.05l-1.95-1.44
	c-0.03-0.02-0.03-0.07,0-0.1l1.95-1.44c0.05-0.03,0.11,0,0.11,0.05v0.95c1.04-0.02,1.93-0.66,2.31-1.57
	c0.15-0.34,0.22-0.72,0.2-1.12c-0.03-0.55-0.23-1.05-0.56-1.46c-0.17-0.22-0.13-0.53,0.09-0.7c0.21-0.16,0.51-0.11,0.67,0.09
	c0.4,0.5,0.67,1.11,0.75,1.78C20.12,12.78,20.07,13.26,19.95,13.69z"/>
</svg>
