<?xml version="1.0" encoding="utf-8"?>
<!-- Generator: Adobe Illustrator 23.0.2, SVG Export Plug-In . SVG Version: 6.00 Build 0)  -->
<svg version="1.1" id="Layer_1" xmlns="http://www.w3.org/2000/svg" xmlns:xlink="http://www.w3.org/1999/xlink" x="0px" y="0px"
	 viewBox="0 0 15.27 15.28" style="enable-background:new 0 0 15.27 15.28;" xml:space="preserve">
<style type="text/css">
	.st0{fill:#C4C4C4;}
</style>
<g>
	<path class="st0" d="M12.6,7.09L10.39,9.3c-1.22,1.22-3.19,1.22-4.41,0C5.79,9.11,5.64,8.9,5.5,8.67l1.03-1.03
		C6.58,7.59,6.64,7.56,6.7,7.53C6.76,7.77,6.89,8,7.08,8.2c0.61,0.61,1.6,0.61,2.21,0l2.21-2.21c0.61-0.61,0.61-1.6,0-2.21
		s-1.6-0.61-2.21,0L8.5,4.56C7.87,4.32,7.19,4.25,6.52,4.35l1.67-1.67c1.22-1.22,3.19-1.22,4.41,0S13.81,5.87,12.6,7.09z
		 M6.77,10.72l-0.79,0.79c-0.61,0.61-1.6,0.61-2.21,0s-0.61-1.6,0-2.21l2.21-2.21c0.61-0.61,1.6-0.61,2.21,0
		c0.2,0.19,0.32,0.41,0.39,0.66C8.63,7.72,8.7,7.69,8.74,7.63l1.02-1.02C9.64,6.39,9.49,6.17,9.29,5.99c-1.22-1.22-3.19-1.22-4.41,0
		L2.68,8.2c-1.22,1.22-1.22,3.19,0,4.41s3.19,1.22,4.41,0l1.67-1.67C8.09,11.03,7.4,10.97,6.77,10.72z"/>
</g>
</svg>
