<?xml version="1.0" encoding="iso-8859-1"?>
<!-- Generator: Adobe Illustrator 18.1.1, SVG Export Plug-In . SVG Version: 6.00 Build 0)  -->
<svg version="1.1" id="Capa_1" xmlns="http://www.w3.org/2000/svg" xmlns:xlink="http://www.w3.org/1999/xlink" x="0px" y="0px"
	 viewBox="0 0 174.239 174.239" style="enable-background:new 0 0 174.239 174.239;" xml:space="preserve">
<g>
	<path fill="#fff" d="M73.799,107.802c-1.144,0.89-2.511,1.335-3.909,1.335c-1.367,0-2.765-0.445-3.909-1.335L25.617,76.37
		c-2.765-2.162-3.274-6.134-1.112-8.899c2.161-2.797,6.166-3.274,8.931-1.113l36.454,28.35l32.831-25.521
		c-5.625-7.882-8.454-17.163-8.454-26.443H19.07C8.549,42.743,0,51.325,0,61.813v85.018c0,10.488,8.549,19.07,19.07,19.07h101.704
		c10.488,0,19.069-8.581,19.069-19.07V88.288c-10.012,0-20.055-3.274-28.318-9.853L73.799,107.802z"/>
	<path fill="#fff" d="M164.156,18.398c-13.444-13.412-35.215-13.412-48.659,0c-6.738,6.738-10.075,15.542-10.075,24.346
		c0,8.804,3.337,17.607,10.075,24.346c6.738,6.706,15.51,10.043,24.345,10.043c8.772,0,17.607-3.337,24.314-10.043
		C177.6,53.645,177.6,31.842,164.156,18.398z"/>
</g>
<g>
</g>
<g>
</g>
<g>
</g>
<g>
</g>
<g>
</g>
<g>
</g>
<g>
</g>
<g>
</g>
<g>
</g>
<g>
</g>
<g>
</g>
<g>
</g>
<g>
</g>
<g>
</g>
<g>
</g>
</svg>
