<?xml version="1.0" encoding="utf-8"?>
<!-- Generator: Adobe Illustrator 23.0.2, SVG Export Plug-In . SVG Version: 6.00 Build 0)  -->
<svg version="1.1" id="Layer_1" xmlns="http://www.w3.org/2000/svg" xmlns:xlink="http://www.w3.org/1999/xlink" x="0px" y="0px"
	 viewBox="0 0 22.27 20" style="enable-background:new 0 0 22.27 20;" xml:space="preserve">
<style type="text/css">
	.st0{fill:#C4C4C4;}
</style>
<g>
	<polygon class="st0" points="0,0.88 0,11.57 5.94,6.22 	"/>
	<polygon class="st0" points="16.24,0 0.98,0 8.61,6.87 	"/>
	<path class="st0" d="M7.91,8L6.92,7.11l-5.94,5.34H6.6C6.6,10.81,7.08,9.28,7.91,8z"/>
	<path class="st0" d="M14.85,4.2c0.82,0,1.62,0.12,2.37,0.35V0.88l-3.83,3.45C13.86,4.24,14.35,4.2,14.85,4.2z"/>
	<g>
		<path class="st0" d="M17.19,13.37l1.69,1.68c0.08,0.08,0.13,0.18,0.13,0.3s-0.04,0.23-0.13,0.31l-0.26,0.26
			c-0.08,0.08-0.19,0.13-0.31,0.13c-0.12,0-0.23-0.04-0.31-0.13l-2.86-2.86c-0.08-0.08-0.13-0.19-0.13-0.31
			c0-0.12,0.04-0.23,0.13-0.31L18,9.58c0.08-0.08,0.19-0.13,0.31-0.13s0.23,0.05,0.31,0.13l0.26,0.26c0.08,0.08,0.13,0.19,0.13,0.31
			c0,0.12-0.04,0.23-0.13,0.31l-1.67,1.67h5.03c-0.32-3.71-3.43-6.63-7.22-6.63S8.11,8.42,7.8,12.13h5.05l-1.69-1.68
			c-0.08-0.08-0.13-0.18-0.13-0.3s0.04-0.23,0.13-0.31l0.26-0.26c0.08-0.08,0.19-0.13,0.31-0.13c0.12,0,0.23,0.04,0.31,0.13
			l2.86,2.86c0.08,0.08,0.13,0.19,0.13,0.31s-0.04,0.23-0.13,0.31l-2.86,2.86c-0.08,0.08-0.19,0.13-0.31,0.13
			c-0.12,0-0.23-0.05-0.31-0.13l-0.26-0.26c-0.08-0.08-0.13-0.19-0.13-0.31c0-0.12,0.04-0.23,0.13-0.31l1.67-1.67H7.8
			C8.12,17.08,11.23,20,15.02,20s6.91-2.92,7.22-6.63H17.19z"/>
	</g>
</g>
</svg>
