<?xml version="1.0" encoding="utf-8"?>
<!-- Generator: Adobe Illustrator 14.0.0, SVG Export Plug-In . SVG Version: 6.00 Build 43363)  -->
<!DOCTYPE svg PUBLIC "-//W3C//DTD SVG 1.1//EN" "http://www.w3.org/Graphics/SVG/1.1/DTD/svg11.dtd">
<svg version="1.1" id="Capa_1" xmlns="http://www.w3.org/2000/svg" xmlns:xlink="http://www.w3.org/1999/xlink" x="0px" y="0px"
	 width="612px" height="792px" viewBox="0 0 612 792" enable-background="new 0 0 612 792" xml:space="preserve">
<g>
	<g>
		<path fill="#FFFFFF" d="M201.405,190.17h235.227v58.807h29.403V190.17c0-16.224-13.149-29.405-29.403-29.405H201.405
			c-16.223,0-29.406,13.181-29.406,29.405v58.807h29.406V190.17z"/>
		<path fill="#FFFFFF" d="M524.846,278.381H113.194c-16.223,0-29.405,13.178-29.405,29.402V454.8
			c0,16.256,13.182,29.406,29.405,29.406h58.807v117.611c0,16.256,13.181,29.404,29.404,29.404h235.227
			c16.256,0,29.405-13.148,29.405-29.404V484.206h58.809c16.25,0,29.4-13.15,29.4-29.406V307.783
			C554.246,291.559,541.094,278.381,524.846,278.381z M436.632,601.817H201.405V395.994h235.227V601.817z M495.439,366.593
			c-16.254,0-29.404-13.152-29.404-29.405c0-16.222,13.15-29.405,29.404-29.405c16.256,0,29.404,13.182,29.404,29.405
			C524.846,353.439,511.695,366.593,495.439,366.593z"/>
		<rect x="230.806" y="425.396" fill="#FFFFFF" width="117.616" height="29.404"/>
		<rect x="230.806" y="484.206" fill="#FFFFFF" width="176.425" height="29.397"/>
		<rect x="230.806" y="543.014" fill="#FFFFFF" width="176.425" height="29.4"/>
	</g>
</g>
</svg>
