<?xml version="1.0"?>
<svg xmlns="http://www.w3.org/2000/svg" xmlns:xlink="http://www.w3.org/1999/xlink" version="1.1" id="Capa_1" x="0px" y="0px" viewBox="0 0 24.499 24.499" style="enable-background:new 0 0 24.499 24.499;" xml:space="preserve" width="512px" height="512px"><g transform="matrix(-1 4.89859e-16 4.89859e-16 1 24.499 -4.89562e-15)"><g>
	<path d="M24.25,15.368c0.087-0.143,0.151-0.301,0.151-0.481c0-0.272-0.115-0.518-0.3-0.69l-7.64-10.2   c-0.109-0.144-0.257-0.255-0.426-0.318L7.934,0.662C7.527,0.511,7.071,0.657,6.827,1.015C6.582,1.373,6.614,1.851,6.904,2.174   l6.378,7.117c-0.015,0.004-0.031,0.004-0.047,0.009L1.342,12.881C0.545,13.121,0,13.854,0,14.686v0.556   c0,0.569,0.256,1.108,0.699,1.465l8.371,6.77c0.341,0.276,0.761,0.419,1.185,0.419c0.247,0,0.495-0.048,0.729-0.147l12.36-5.194   c0.701-0.295,1.155-0.979,1.155-1.738v-0.513C24.5,15.971,24.411,15.649,24.25,15.368z M8.089,21.583   c-0.315,0-0.569-0.413-0.569-0.921s0.255-0.92,0.569-0.92s0.569,0.412,0.569,0.92S8.404,21.583,8.089,21.583z M10.508,19.44   l-7.519-5.484l4.858-1.518l7.791,5.066L10.508,19.44z M16.695,17.104c-0.032-0.041-0.067-0.081-0.113-0.111l-7.567-4.92l4.59-1.434   l7.916,4.644L16.695,17.104z" data-original="#030104" class="active-path" data-old_color="#030104" fill="#FFFFFF"/>
</g></g> </svg>
