<?xml version="1.0" encoding="UTF-8" standalone="no"?>
<svg
   xmlns:dc="http://purl.org/dc/elements/1.1/"
   xmlns:cc="http://creativecommons.org/ns#"
   xmlns:rdf="http://www.w3.org/1999/02/22-rdf-syntax-ns#"
   xmlns:svg="http://www.w3.org/2000/svg"
   xmlns="http://www.w3.org/2000/svg"
   xmlns:sodipodi="http://sodipodi.sourceforge.net/DTD/sodipodi-0.dtd"
   xmlns:inkscape="http://www.inkscape.org/namespaces/inkscape"
   inkscape:version="1.0 (4035a4fb49, 2020-05-01)"
   sodipodi:docname="toolbar_edit.svg"
   version="1.1"
   viewBox="0 0 24 24"
   data-name="Layer 1"
   id="Layer_1">
  <metadata
     id="metadata17">
    <rdf:RDF>
      <cc:Work
         rdf:about="">
        <dc:format>image/svg+xml</dc:format>
        <dc:type
           rdf:resource="http://purl.org/dc/dcmitype/StillImage" />
      </cc:Work>
    </rdf:RDF>
  </metadata>
  <sodipodi:namedview
     inkscape:current-layer="Layer_1"
     inkscape:window-maximized="1"
     inkscape:window-y="-9"
     inkscape:window-x="-9"
     inkscape:cy="11.942169"
     inkscape:cx="12"
     inkscape:zoom="34.583333"
     showgrid="false"
     id="namedview15"
     inkscape:window-height="1001"
     inkscape:window-width="1920"
     inkscape:pageshadow="2"
     inkscape:pageopacity="0"
     guidetolerance="10"
     gridtolerance="10"
     objecttolerance="10"
     borderopacity="1"
     bordercolor="#666666"
     pagecolor="#ffffff" />
  <defs
     id="defs4">
    <style
       id="style2">.cls-1{fill:#333;}.cls-2{fill:#757575;}</style>
  </defs>
  <title
     id="title6">toolbar_edit_1</title>
  <path
     id="path8"
     d="M22.941,7.186a3.627,3.627,0,0,0-.007-5.13h0A3.627,3.627,0,0,0,17.8,2.05L16.513,3.341,21.65,8.478Z"
     class="cls-1" />
  <path
     id="path10"
     d="M16,20.324a1.669,1.669,0,0,1-1.667,1.667H2.667A1.669,1.669,0,0,1,1,20.324V3.658A1.669,1.669,0,0,1,2.667,1.991h9.919L14.58,3.985l0,0,.64-.64.063-.063L13,.991H2.667A2.667,2.667,0,0,0,0,3.658V20.324a2.667,2.667,0,0,0,2.667,2.667H14.333A2.667,2.667,0,0,0,17,20.324V14.416l-1,1Z"
     class="cls-2" />
  <polygon
     id="polygon12"
     points="7.524 12.33 6.24 18.751 12.661 17.467 20.366 9.762 15.229 4.625 7.524 12.33"
     class="cls-1" />
  <path
     id="path19"
     d="m 6.2746988,18.696502 c 0,-0.01764 0.2846637,-1.455138 0.632586,-3.194428 l 0.6325861,-3.162345 3.8420821,-3.8421641 3.842082,-3.8421636 2.559037,2.5590361 2.559036,2.559036 -3.838639,3.8387196 -3.838638,3.83872 -3.195066,0.638836 c -1.9757474,0.39504 -3.1950662,0.626593 -3.1950662,0.606753 z"
     style="opacity:0.5;fill:#999999;stroke-width:0.0289157" />
  <path
     id="path21"
     d="M 19.090514,5.8905143 16.537777,3.3376551 17.32672,2.5575007 c 0.810493,-0.8014644 0.996111,-0.9532339 1.439545,-1.1770345 0.816278,-0.41197438 1.846451,-0.48314417 2.73253,-0.1887776 1.072778,0.3563904 1.935818,1.219083 2.296464,2.2955395 0.238674,0.7123954 0.239375,1.5640704 0.0019,2.2729778 -0.223733,0.6678 -0.461233,1.0003295 -1.383948,1.9377024 -0.403593,0.4100059 -0.741934,0.7454652 -0.751867,0.7454652 -0.0099,0 -1.166793,-1.1487866 -2.570798,-2.5528592 z"
     style="opacity:0.5;fill:#999999;stroke-width:0.0289157" />
</svg>
