<?xml version="1.0" encoding="utf-8"?>
<!-- Generator: Adobe Illustrator 23.0.2, SVG Export Plug-In . SVG Version: 6.00 Build 0)  -->
<svg version="1.1" id="Layer_1" xmlns="http://www.w3.org/2000/svg" xmlns:xlink="http://www.w3.org/1999/xlink" x="0px" y="0px"
	 viewBox="0 0 20.11 18" style="enable-background:new 0 0 20.11 18;" xml:space="preserve">
<style type="text/css">
	.st0{fill:#00B7C3;}
</style>
<g>
	<g>
		<g>
			<path class="st0" d="M11.91,2.81H5.62V0.7c0-0.28-0.17-0.54-0.43-0.65C4.92-0.06,4.62,0,4.42,0.2L0.2,4.43
				c-0.27,0.27-0.27,0.72,0,0.99l4.22,4.22c0.2,0.2,0.5,0.26,0.77,0.15s0.43-0.37,0.43-0.65V7.03h6.29c0.39,0,0.7-0.32,0.7-0.7V3.52
				C12.61,3.13,12.3,2.81,11.91,2.81z"/>
		</g>
	</g>
	<g>
		<g>
			<path class="st0" d="M7.49,11.67v2.81c0,0.39,0.32,0.7,0.7,0.7h6.29v2.11c0,0.28,0.17,0.54,0.43,0.65s0.56,0.05,0.77-0.15
				l4.22-4.22c0.27-0.27,0.27-0.72,0-0.99l-4.22-4.22c-0.2-0.2-0.5-0.26-0.77-0.15c-0.26,0.11-0.43,0.37-0.43,0.65v2.11H8.19
				C7.8,10.96,7.49,11.28,7.49,11.67z"/>
		</g>
	</g>
</g>
</svg>
