<?xml version="1.0" encoding="utf-8"?>
<!-- Generator: Adobe Illustrator 23.0.2, SVG Export Plug-In . SVG Version: 6.00 Build 0)  -->
<svg version="1.1" id="Layer_1" xmlns="http://www.w3.org/2000/svg" xmlns:xlink="http://www.w3.org/1999/xlink" x="0px" y="0px"
	 viewBox="0 0 10.9 16" style="enable-background:new 0 0 10.9 16;" xml:space="preserve">
<style type="text/css">
	.st0{fill-rule:evenodd;clip-rule:evenodd;fill:#C4C4C4;}
</style>
<g>
	<path class="st0" d="M2.05,3.51v0.64c0,2.05,1.49,4.04,3.4,4.04s3.4-1.98,3.4-4.04V3.51C8.85,1.46,7.36,0,5.45,0
		S2.05,1.46,2.05,3.51z"/>
	<path class="st0" d="M10.84,15.41c0.04-0.17,0.06-0.37,0.06-0.6c0-0.01,0-2.79,0-2.81c0-0.14-0.01-0.28-0.02-0.42
		c0-0.01,0-0.02-0.01-0.03c-0.02-0.13-0.04-0.25-0.07-0.38l0,0c-0.07-0.26-0.19-0.51-0.37-0.76l0,0C10.13,10,9.69,9.58,8.97,9.18
		C8.59,8.97,8.42,8.87,8.18,8.87c-0.38,0-0.7,0.29-1.26,0.8l0,0l-0.5,0.46c-0.02,0.02-0.56,0.78-0.97,0.78s-0.95-0.77-0.97-0.78
		l-0.5-0.46l0,0c-0.55-0.51-0.88-0.8-1.26-0.8c-0.24,0-0.45,0.1-0.79,0.31C1.23,9.62,0.76,10,0.47,10.41l0,0l0,0
		c-0.18,0.25-0.3,0.5-0.37,0.76c0,0,0,0,0,0.01c-0.03,0.12-0.06,0.25-0.07,0.37c0,0.01,0,0.02-0.01,0.03C0.01,11.72,0,11.85,0,12
		c0,0.02,0,2.79,0,2.81c0,0.29,0.03,0.53,0.11,0.72C1.7,15.83,3.41,16,5.19,16C7.19,16,9.1,15.79,10.84,15.41z"/>
</g>
</svg>
