<?xml version="1.0" encoding="utf-8"?>
<!-- Generator: Adobe Illustrator 14.0.0, SVG Export Plug-In . SVG Version: 6.00 Build 43363)  -->
<!DOCTYPE svg PUBLIC "-//W3C//DTD SVG 1.1//EN" "http://www.w3.org/Graphics/SVG/1.1/DTD/svg11.dtd">
<svg version="1.1" id="Layer_1" xmlns="http://www.w3.org/2000/svg" xmlns:xlink="http://www.w3.org/1999/xlink" x="0px" y="0px"
	 width="250px" height="250px" viewBox="0 0 250 250" enable-background="new 0 0 250 250" xml:space="preserve">
<g>
	<path fill="#00B7C3" d="M77.359,71.972v7.559c0,24.211,20.877,47.714,47.641,47.714c26.765,0,47.641-23.385,47.641-47.714v-7.559
		c0-24.211-20.879-41.454-47.641-41.454C98.237,30.518,77.359,47.761,77.359,71.972z"/>
	<path fill="#00B7C3" d="M200.526,212.514c0.56-2.008,0.84-4.369,0.84-7.086c0-0.117,0-32.949,0-33.187
		c0-1.653-0.141-3.308-0.28-4.96c0-0.118,0-0.237-0.141-0.354c-0.28-1.534-0.561-2.952-0.979-4.487l0,0
		c-0.98-3.07-2.663-6.023-5.185-8.977l0,0c-4.203-4.843-10.369-9.803-20.457-14.527c-5.324-2.479-7.706-3.66-11.07-3.66
		c-5.324,0-9.81,3.426-17.656,9.449l0,0l-7.005,5.432c-0.28,0.236-7.848,9.213-13.592,9.213c-5.745,0-13.312-9.096-13.592-9.213
		l-7.006-5.432l0,0c-7.706-6.023-12.331-9.449-17.656-9.449c-3.362,0-6.305,1.182-11.069,3.66
		c-9.808,5.197-16.395,9.686-20.458,14.527l0,0l0,0c-2.522,2.952-4.203,5.905-5.185,8.977c0,0,0,0,0,0.117
		c-0.42,1.418-0.84,2.952-0.981,4.37c0,0.117,0,0.236-0.14,0.354c-0.14,1.652-0.28,3.188-0.28,4.96c0,0.235,0,32.95,0,33.187
		c0,3.426,0.42,6.26,1.541,8.504c22.279,3.543,46.24,5.551,71.182,5.551C149.381,219.482,176.145,217.002,200.526,212.514z"/>
</g>
</svg>
