<svg width="24" height="24" viewBox="0 0 24 24" fill="none" xmlns="http://www.w3.org/2000/svg">
<path d="M12.3586 0C9.7967 0 7.7124 2.08425 7.7124 4.6462C7.7124 7.20811 9.79665 9.29236 12.3586 9.29236C14.9205 9.29236 17.0048 7.20811 17.0048 4.6462C17.0048 2.08425 14.9206 0 12.3586 0Z" fill="#FF504A"/>
<path d="M12.3586 0C9.7967 0 7.7124 2.08425 7.7124 4.6462C7.7124 7.20811 9.79666 9.29236 12.3586 9.29236V0Z" fill="#FF7959"/>
<path d="M15.1005 10.2656H9.6166C7.67808 10.2656 6.08569 11.8475 6.08569 13.786V20.6761C6.08569 21.8393 7.04724 22.7812 8.21035 22.7812H16.5068C17.6699 22.7812 18.6014 21.8393 18.6014 20.6761V13.786C18.6014 11.8475 17.039 10.2656 15.1005 10.2656Z" fill="#FF504A"/>
<path d="M12.3585 10.2656H9.6166C7.67808 10.2656 6.08569 11.8475 6.08569 13.786V20.6761C6.08569 21.8393 7.04724 22.7812 8.21035 22.7812H12.3586L12.3585 10.2656Z" fill="#FF7959"/>
</svg>
