<?xml version="1.0" encoding="utf-8"?>
<!-- Generator: Adobe Illustrator 14.0.0, SVG Export Plug-In . SVG Version: 6.00 Build 43363)  -->
<!DOCTYPE svg PUBLIC "-//W3C//DTD SVG 1.1//EN" "http://www.w3.org/Graphics/SVG/1.1/DTD/svg11.dtd">
<svg version="1.1" id="Capa_1" xmlns="http://www.w3.org/2000/svg" xmlns:xlink="http://www.w3.org/1999/xlink" x="0px" y="0px"
	 width="612px" height="792px" viewBox="0 0 612 792" enable-background="new 0 0 612 792" xml:space="preserve">
<g>
	<path fill="#65676F" d="M515.367,186.638c-17.243-17.243-38.035-25.872-62.324-25.872H158.961c-24.29,0-45.083,8.63-62.324,25.872
		c-17.242,17.241-25.872,38.034-25.872,62.323v294.047c0,24.285,8.63,45.081,25.872,62.322
		c17.241,17.241,38.034,25.892,62.324,25.892h294.047c24.285,0,45.081-8.63,62.324-25.892c17.239-17.241,25.89-38.037,25.89-62.322
		V248.961C541.257,224.671,532.608,203.896,515.367,186.638z M266.616,558.6v-44.983h-51.742h-25.486v-25.487V354.912h-46.334
		V236.754h118.158v118.158h-46.337v133.216h51.742v-45.563l59.465,57.147L266.616,558.6z M468.951,440.442v118.154v0.004H350.793
		v-0.004V440.442v-0.004h46.335V307.225h-51.741v45.56v0.003l-59.464-57.148l0.001-0.001l-0.001-0.001l59.464-58.885v0.001v44.982
		h51.741h25.487v0.002v25.481v0.003v133.213h46.336V440.442z"/>
</g>
</svg>
