<?xml version="1.0" encoding="utf-8"?>
<!-- Generator: Adobe Illustrator 14.0.0, SVG Export Plug-In . SVG Version: 6.00 Build 43363)  -->
<!DOCTYPE svg PUBLIC "-//W3C//DTD SVG 1.1//EN" "http://www.w3.org/Graphics/SVG/1.1/DTD/svg11.dtd">
<svg version="1.1" id="Capa_1" xmlns="http://www.w3.org/2000/svg" xmlns:xlink="http://www.w3.org/1999/xlink" x="0px" y="0px"
	 width="612px" height="792px" viewBox="0 0 612 792" enable-background="new 0 0 612 792" xml:space="preserve">
<g>
	<polygon fill="#65676F" points="245.899,641.563 245.899,572.92 166.942,572.92 128.052,572.92 128.052,534.028 128.052,330.744 
		57.347,330.744 57.347,150.439 237.651,150.439 237.651,330.744 166.942,330.744 166.942,534.024 245.899,534.024 245.899,464.498 
		336.639,551.703 	"/>
	<polygon fill="#65676F" points="554.652,461.259 554.652,641.559 554.652,641.563 374.348,641.563 374.348,641.559 
		374.348,461.259 374.348,461.255 445.053,461.255 445.053,257.976 366.1,257.976 366.1,327.497 366.1,327.502 275.359,240.296 
		275.36,240.295 275.359,240.292 366.1,150.437 366.1,150.439 366.1,219.08 445.053,219.08 483.945,219.08 483.945,219.084 
		483.945,257.968 483.945,257.974 483.945,461.25 554.652,461.25 	"/>
</g>
</svg>
